<?xml version="1.0" encoding="UTF-8"?>
<svg width="312px" height="53px" viewBox="0 0 312 53" version="1.1" xmlns="http://www.w3.org/2000/svg" xmlns:xlink="http://www.w3.org/1999/xlink">
    <title>banner-模版2.0-pc</title>
    <g id="页面-1" stroke="none" stroke-width="1" fill="none" fill-rule="evenodd">
        <g id="banner-模版2.0-pc" fill="#333333" fill-rule="nonzero">
            <rect id="Rectangle-Copy-13_3_" x="141" y="52" width="30.3" height="1"></rect>
            <g id="编组">
                <path d="M4.9,11.9 L0.7,11.9 C0.5,11.9 0.4,11.7 0.3,11.3 C0.3,10.9 0.4,10.7 0.7,10.7 L4.9,10.7 L4.9,4.5 L4.8,1.2 C4.8,1.1 4.9,1.1 4.9,1.1 C4.9,1.1 5.1,1.1 5.4,1.2 L7.9,2.2 C8.2,2.3 8.2,2.5 7.9,2.8 L7.1,3.7 L7.1,10.7 L7.8,10.7 L8.5,9.5 C8.7,9.2 8.8,9 8.9,9 C9,9 9.2,9.2 9.7,9.7 L10.6,10.7 C10.9,11.1 11.1,11.4 11,11.6 C10.9,11.8 10.8,11.8 10.7,11.8 L7.2,11.8 L7.2,16.8 C9,17.4 10,18.1 10.3,19 C10.6,19.9 10.7,20.5 10.7,20.8 L10.7,21.1 L12,21.1 C12,20.9 12,20.7 12,20.6 L12.2,17.9 C12.3,16.5 12.4,15.3 12.4,14.5 L12.5,12.5 C12.1,13.2 11.7,14 11.2,14.9 L10.6,15.9 C10.4,16.2 10.3,16.3 10.2,16.2 C10.1,16.1 10.1,15.9 10.2,15.6 L10.6,14.3 C10.9,13.2 11.3,12 11.6,10.6 C11.9,9.2 12.2,8.2 12.4,7.6 L12.9,5.5 C13.1,4.4 13.3,3.7 13.3,3.4 L13.6,1.8 L13.7,1.2 C13.7,1.2 13.8,1.1 13.8,1.1 L14.3,1.5 L16.6,3 C16.8,3.1 16.9,3.3 16.9,3.4 C16.9,3.6 16.8,3.7 16.6,3.9 L16.2,4.2 L14.8,7.6 L22.5,7.6 L23.4,5.8 C23.5,5.6 23.6,5.5 23.7,5.4 C23.8,5.4 23.9,5.4 24,5.6 L26.1,8 C26.3,8.2 26.3,8.4 26.3,8.5 C26.3,8.7 26.2,8.7 26.1,8.7 L24.8,8.7 L24.8,8.7 L14.2,8.7 L12.8,11.7 L14.9,13.1 L21.2,13.1 L21.8,11.7 C21.9,11.4 22,11.3 22.1,11.3 C22.2,11.3 22.3,11.4 22.5,11.6 L24.4,13.4 C24.5,13.6 24.6,13.7 24.6,13.8 C24.6,13.9 24.5,14.1 24.3,14.3 L23.8,15 L23.6,21.2 L23.8,21.2 L24.4,20 C24.6,19.6 24.8,19.4 24.8,19.4 C24.9,19.4 25,19.5 25.2,19.7 L26.6,21.5 C26.8,21.7 26.8,21.9 26.8,22.1 C26.8,22.3 26.7,22.3 26.6,22.3 L24.7,22.3 L24.7,22.3 L23.4,22.3 C23.4,22.6 23.4,23.3 23.3,24.4 C23.2,25.5 23.2,26.4 23.2,27.3 L23.1,29.5 L23.1,30 L23.2,30 L23.9,28.5 C24,28.3 24.1,28.1 24.2,28.1 C24.3,28.1 24.4,28.2 24.6,28.4 L25.9,29.9 C26.3,30.3 26.4,30.6 26.4,30.8 C26.4,31 26.3,31 26.1,31 L23.7,31 L23.7,31.1 L22.9,31.1 C22.9,31.4 22.8,31.7 22.8,31.9 C22.8,32.1 22.8,32.4 22.7,32.6 C22.7,32.9 22.6,33.4 22.4,34 C22.2,34.6 22,35.2 21.8,35.7 C21.6,36.2 21.2,36.6 20.7,37 C20.2,37.4 19.6,37.7 18.9,37.8 C18.7,37.8 18.6,37.8 18.6,37.8 C18.6,37.8 18.5,37.6 18.4,37.2 C18.3,36.8 18.2,36.4 18,36.1 C17.8,35.8 17.6,35.5 17.5,35.4 C17.3,35.3 17.1,35.1 16.9,35 L16.1,34.6 C16,34.6 15.9,34.5 15.9,34.4 C15.9,34.3 15.8,34.2 15.9,34.1 C15.9,34 16,34 16.1,34 L16.9,34.2 C18.2,34.5 19.1,34.4 19.4,34 C19.7,33.6 20,33 20.1,32.3 L20.2,31.7 L20.3,31.1 L12.9,31.1 L12.3,32 C12.1,32.3 12,32.5 11.9,32.5 C11.8,32.5 11.7,32.4 11.6,32.2 L10.9,31 C10.6,30.7 10.4,30.5 10.4,30.4 C10.4,30.3 10.4,30.3 10.4,30.2 L10.8,29.8 L11.2,29.3 C11.4,27.9 11.5,26.7 11.6,25.8 C11.7,24.9 11.8,23.7 11.9,22.4 L10.3,22.4 C10,22.7 9.7,22.9 9.3,22.9 C8.9,22.9 8.7,22.8 8.6,22.5 C8.4,22.2 8.3,22 8.3,21.7 C8.3,21.4 8.3,21 8.2,20.5 C8.1,20 8.1,19.5 8,19.1 C7.9,18.7 7.8,18.4 7.6,18.2 L7.2,17.8 L7.2,32.4 L7.3,36.7 C7.3,36.9 7.2,37 7.2,37.2 C7.1,37.3 7,37.5 6.7,37.7 C6.4,37.9 6.1,38 5.7,38 C5.3,38 5,37.9 5,37.8 C4.9,37.6 4.9,37.4 4.8,37.2 L4.9,33.1 L4.9,22.1 C4.6,22.7 4.2,23.5 3.7,24.4 C3.2,25.3 2.8,26.1 2.4,26.8 C2,27.5 1.8,28 1.7,28.2 C1.6,28.4 1.5,28.6 1.5,28.7 L1,29.3 C0.9,29.5 0.8,29.6 0.7,29.5 C0.6,29.4 0.6,29.2 0.7,29 L1.1,27.8 C2.1,25 2.9,22.1 3.6,19.2 C4.2,16.4 4.6,13.9 4.9,11.9 Z M13.5,30 L20.9,30 C20.9,29.9 20.9,29.6 21,29.3 C21,29 21.1,28.2 21.1,27.1 L21.2,24.7 L21.3,22.3 L14.2,22.3 L13.5,30 Z M14.2,21.2 L21.3,21.2 C21.3,20.8 21.3,20.5 21.3,20.3 C21.3,20.1 21.3,19.7 21.3,19 C21.3,18.3 21.3,17.5 21.3,16.6 C21.3,15.7 21.3,15.1 21.3,14.9 L21.3,14.4 L14.7,14.4 L14.2,21.2 Z M16,23.7 C16,23.4 16.1,23.4 16.4,23.6 C17.6,24.4 18.4,25.2 18.6,25.8 C18.8,26.4 18.9,27.1 18.9,27.6 C18.9,28 18.7,28.3 18.5,28.7 C18.3,29 18,29.2 17.6,29.2 C17.2,29.2 16.9,29 16.7,28.7 C16.6,28.5 16.5,28.3 16.5,28 C16.5,27.7 16.5,27.3 16.5,26.8 C16.5,26.3 16.5,25.8 16.4,25.5 C16.4,25.3 16.3,25 16.1,24.5 C16.1,24 16,23.8 16,23.7 Z M16.1,15.1 C16.2,15 16.4,15.1 16.8,15.3 C17.2,15.5 17.6,15.8 17.9,16 C18.2,16.2 18.5,16.5 18.7,16.9 C18.9,17.3 19.1,17.7 19.1,18.3 C19.2,18.8 19.1,19.3 18.9,19.7 C18.7,20.1 18.4,20.4 18,20.4 C17.6,20.4 17.3,20.2 17.1,19.8 C17,19.6 16.9,19.2 16.9,18.8 L16.9,17.8 C16.9,17 16.7,16.5 16.5,16.1 C16.3,15.7 16.2,15.5 16.2,15.4 C16.1,15.2 16.1,15.1 16.1,15.1 Z" id="形状"></path>
                <path d="M48.4,10.3 L48.9,9.5 C49.2,9.1 49.4,8.8 49.4,8.8 L49.9,9.4 L51.1,10.7 C51.2,10.8 51.3,10.9 51.4,11.1 C51.5,11.3 51.4,11.4 51.1,11.4 L47.2,11.4 L47.2,13.7 L48.7,13.7 L49.3,12.8 C49.5,12.5 49.6,12.4 49.7,12.4 C49.8,12.4 49.9,12.5 50.1,12.8 L51.1,14 C51.3,14.2 51.4,14.4 51.4,14.6 C51.4,14.8 51.3,14.8 51.2,14.8 L47.4,14.8 L47.4,17.3 L51.6,17.3 L52.4,15.9 C52.6,15.5 52.8,15.3 52.9,15.3 C53,15.3 53.2,15.5 53.6,15.9 L55,17.4 C55.3,17.7 55.4,17.9 55.4,18.1 C55.4,18.2 55.4,18.2 55.3,18.3 C55.2,18.4 55.2,18.4 55.1,18.4 L53.3,18.4 L53.3,18.4 L47.9,18.4 C48,18.5 48.2,18.8 48.6,19.3 C49,19.8 49.8,20.5 51,21.4 C52.2,22.3 53.7,22.8 55.5,23 L56.5,23.1 C56.6,23.1 56.7,23.2 56.7,23.2 C56.7,23.2 56.7,23.3 56.7,23.3 C56.7,23.3 56.7,23.4 56.6,23.4 C56.6,23.5 56.5,23.5 56.5,23.5 L56,24 C55.3,24.5 54.8,25 54.5,25.8 C54.2,26.6 53.9,26.9 53.8,26.8 C53.2,26.7 51.9,25.8 50,23.9 L49.7,24.2 L49.7,27.4 L49.8,30.8 C49.8,31 49.7,31.1 49.7,31.2 C49.7,31.3 49.5,31.4 49.3,31.5 C49.1,31.6 48.9,31.7 48.9,31.7 C48.8,31.7 48.6,31.8 48.2,31.8 C47.8,31.8 47.6,31.8 47.5,31.7 C47.4,31.6 47.4,31.4 47.4,31.1 L47.4,22.8 L38.5,22.8 L38.5,31.9 C38.5,32.1 38.4,32.4 38.1,32.6 C37.8,32.8 37.4,33 36.9,33 C36.6,33 36.5,33 36.4,32.9 C36.3,32.8 36.3,32.6 36.3,32.4 L36.4,28.9 L36.4,23.7 C34.5,25.2 32.9,26.3 31.8,26.9 L30.8,27.4 C30.4,27.6 30.1,27.8 30,27.8 C29.9,27.8 29.8,27.8 29.8,27.7 C29.8,27.6 29.8,27.6 29.8,27.5 C29.8,27.3 29.9,27.2 30.1,27 L30.8,26.4 L31.7,25.7 C32.7,24.9 33.7,23.8 34.9,22.4 C36.1,21 36.7,20 37,19.6 C37.2,19.1 37.4,18.8 37.6,18.5 L31,18.5 C30.8,18.5 30.6,18.3 30.6,17.9 C30.6,17.5 30.7,17.3 31,17.3 L38,17.3 L38,14.8 L34.8,14.8 L34.6,14.7 C34.5,14.7 34.4,14.6 34.4,14.5 C34.3,14.4 34.3,14.3 34.3,14 C34.3,13.7 34.4,13.6 34.6,13.6 L38,13.6 L38,11.3 L34.9,11.3 L34.7,11.2 C34.6,11.2 34.5,11.1 34.5,11 C34.4,10.9 34.4,10.8 34.4,10.5 C34.4,10.2 34.5,10.1 34.7,10.1 L38,10.1 L38,9.8 L37.9,7.1 L37.9,7 L34.3,7 C34.3,7.2 34.3,7.4 34.3,7.6 C34.3,7.8 34.3,8.1 34.3,8.5 C34.3,8.9 34.3,9.4 34.1,9.9 C34,10.4 33.8,10.9 33.5,11.5 C33.2,12.1 32.8,12.3 32.2,12.3 C31.7,12.3 31.3,12.1 31,11.6 C30.7,11.1 30.6,10.7 30.6,10.1 C30.6,9.5 30.8,9 31.1,8.5 C31.1,8.5 31.4,8.1 32,7.6 C32.6,7 32.9,6.3 33.1,5.5 L33.3,4.6 C33.3,4.4 33.4,4.3 33.5,4.3 C33.6,4.3 33.7,4.4 33.8,4.7 L34,5.5 L34.1,5.9 L42.6,5.9 C42.3,5.7 42,5.6 41.9,5.4 C41.7,5.2 41.6,5 41.6,4.8 C41.5,4.6 41.4,4.1 41.3,3.3 C41.2,2.5 40.9,1.9 40.5,1.4 L40.2,1 C40.1,0.8 40,0.7 40,0.6 C40,0.5 40.1,0.4 40.4,0.4 C41.1,0.4 42,0.7 42.9,1.1 C43.8,1.6 44.3,2.2 44.3,3 C44.3,3.8 44.3,4.3 44.2,4.6 C44,5.1 43.9,5.3 43.7,5.4 L43,5.9 L51.5,5.9 L52.1,4.9 C52.3,4.5 52.5,4.3 52.6,4.3 C52.7,4.3 52.9,4.5 53.3,5 L55.1,7.1 C55.5,7.6 55.7,8 55.6,8.2 C55.5,8.4 55.2,8.6 54.7,8.6 C54.1,8.6 53.6,8.7 53.2,8.8 C52.8,8.9 52.4,9.2 52,9.5 L51.3,10.2 C51,10.5 50.8,10.5 50.8,10.3 C50.8,10.1 50.8,10 50.8,9.9 L51.4,7.1 L38.3,7.1 L38.3,7.1 L40.1,7.6 C40.5,7.7 40.7,7.8 40.8,7.9 C40.9,8 40.9,8 40.9,8.1 C40.9,8.2 40.8,8.3 40.6,8.6 L40.1,9.2 L40.1,10.3 L45.1,10.3 L45.1,9.4 C45.1,8.5 45.1,7.9 45,7.7 C45,7.5 45,7.4 45,7.4 L45.5,7.3 L47.6,7.8 C47.9,7.9 48,7.9 48,8 C48,8.1 48,8.1 48,8.1 C48,8.1 48,8.2 47.9,8.3 C47.8,8.4 47.8,8.5 47.7,8.6 L47.2,9.1 L47.2,10.2 L48.4,10.2 L48.4,10.3 Z M44.1,26 C44.1,26.8 44,27.9 43.9,29.1 C43.8,30.4 43.6,31.5 43.2,32.6 C42.8,33.7 42.2,34.5 41.4,35.2 C40.6,35.9 39.6,36.4 38.6,36.9 C37.6,37.4 36.3,37.8 34.8,38.1 L33.5,38.4 C33.3,38.4 33.2,38.5 33.1,38.5 C33,38.5 32.9,38.5 32.9,38.4 C32.9,38.3 32.8,38.3 32.8,38.1 C32.8,37.9 32.9,37.9 33,37.8 L33.5,37.6 L34.4,37.3 C35.6,36.9 36.6,36.4 37.5,35.8 C38.4,35.2 39.2,34.6 39.7,34.1 C40.3,33.6 40.7,32.8 41,31.8 C41.3,30.8 41.5,29.9 41.6,29 C41.7,28.1 41.7,27.1 41.7,26.2 L41.7,23.9 C41.7,23.8 41.7,23.7 41.7,23.7 C41.7,23.7 41.8,23.7 41.9,23.7 L44.4,24.5 C44.6,24.6 44.7,24.6 44.8,24.7 C44.9,24.8 44.9,24.9 44.9,25 C44.9,25.1 44.8,25.2 44.6,25.4 L44.1,26 Z M47.2,21.7 C47.3,21.4 47.4,21.2 47.5,21.1 C47.6,21 47.8,21 47.9,21.3 C47.4,20.2 47.1,19.2 47,18.4 L40,18.4 L40.4,18.7 C40.5,18.8 40.6,18.9 40.7,19 C40.8,19.1 40.8,19.2 40.8,19.3 C40.8,19.4 40.7,19.5 40.5,19.6 L40,19.9 L38.3,21.7 L47.2,21.7 L47.2,21.7 Z M45,13.7 L45,11.4 L40,11.4 L40,13.7 L45,13.7 Z M45,17.3 L45,14.8 L40,14.8 L40,17.3 L45,17.3 Z M43.9,32 C43.9,31.9 44.1,31.8 44.4,31.7 C44.5,31.7 44.6,31.7 44.8,31.8 C45,31.9 45.5,31.9 46.4,32 C47.3,32.1 48.4,32.4 49.8,32.9 C51.2,33.4 52,34 52.4,34.7 C52.8,35.4 53,36 53,36.5 C53,37 52.9,37.5 52.7,37.9 C52.5,38.3 52.2,38.5 51.8,38.6 C51.4,38.7 50.9,38.4 50.4,37.8 C50.3,37.7 49.9,37.1 49.1,36 C48.3,34.9 47.5,34.1 46.8,33.6 C46.1,33.1 45.5,32.8 45.1,32.6 L44.3,32.3 C44,32.3 43.9,32.1 43.9,32 Z" id="形状"></path>
                <path d="M65,17.2 L65.5,17.6 C65.7,17.8 65.8,17.9 65.9,18 C65.9,18 65.9,18.1 66,18.1 C66.1,18.1 66,18.2 66,18.2 C66,18.2 65.9,18.4 65.8,18.5 L65.3,19.1 L65.3,33.2 L65.4,36.8 C65.2,37.5 64.9,37.9 64.3,37.9 C63.7,37.9 63.4,37.9 63.3,37.8 C63.2,37.7 63.2,37.6 63.1,37.4 L63.2,33.3 L63.2,20.3 C63,20.7 62.6,21.3 62,22.1 C61.4,22.9 61.1,23.4 61,23.6 L60.4,24.3 C59.9,24.9 59.6,25.2 59.4,25.1 C59.3,25.1 59.3,25.1 59.3,25 C59.3,25 59.3,24.9 59.3,24.9 C59.3,24.9 59.3,24.8 59.3,24.8 C59.3,24.8 59.3,24.6 59.4,24.5 L59.8,23.8 L60.6,22.2 C61.1,21.3 61.4,20.4 61.7,19.7 C62,19 62.4,17.9 62.9,16.5 C63.4,15.1 63.8,14.1 63.9,13.6 C64,13.1 64.2,12.5 64.4,11.9 L64.8,10.2 C64.8,10.1 64.8,10.1 64.9,10.1 C64.9,10.1 65.1,10.2 65.3,10.3 L67.5,11.9 C67.6,12 67.7,12.1 67.8,12.2 C67.9,12.3 67.9,12.4 67.9,12.5 C67.9,12.6 67.8,12.8 67.5,12.9 L67,13.4 L65,17.2 Z M67.2,4.3 C66.1,6 65.1,7.5 64.3,8.7 C63.5,9.9 62.4,11.2 61.2,12.6 L60.5,13.4 C60.2,13.8 59.9,13.9 59.8,13.9 C59.8,13.9 59.7,13.9 59.7,13.9 C59.7,13.9 59.7,13.8 59.7,13.7 C59.7,13.6 59.7,13.5 59.8,13.4 L60.2,12.6 L60.9,11.3 C61.5,10.3 62.1,8.8 62.9,7 C63.7,5.2 64.2,3.7 64.6,2.4 L65,1.2 C65,1.1 65.1,1 65.1,1 C65.1,1 65.2,1.1 65.4,1.2 L67.6,2.9 C67.9,3.1 68,3.3 68.1,3.3 C68.1,3.4 68.2,3.5 68.2,3.5 C68.2,3.5 68.1,3.7 67.9,3.8 L67.2,4.3 Z M68.8,27.2 C68.9,27.5 69.1,27.9 69.2,28.6 C69.3,29.3 69.4,29.8 69.5,30.2 C69.6,30.6 69.6,31.1 69.6,31.5 C69.6,32.6 69.4,33.6 69,34.5 C68.6,35.4 68.1,35.8 67.4,35.8 C66.9,35.8 66.6,35.6 66.4,35.2 C66.2,34.8 66.1,34.4 66.1,33.9 C66.1,33.4 66.3,32.8 66.7,32.2 L67.3,31.4 C67.6,31 67.8,30.6 67.9,30.2 C68.1,29.8 68.2,29.3 68.3,28.6 L68.4,27.7 C68.6,27 68.7,26.9 68.8,27.2 Z M82.3,22.8 L83.1,21.4 C83.4,20.9 83.5,20.7 83.6,20.7 C83.7,20.7 83.9,20.9 84.3,21.3 L85.7,22.9 C86,23.2 86.1,23.5 86.1,23.7 C86.1,23.9 86,23.9 85.8,23.9 L67.1,23.9 C66.9,23.9 66.8,23.8 66.8,23.8 C66.7,23.7 66.7,23.6 66.6,23.3 C66.5,23 66.7,22.9 67,22.9 L82.3,22.9 L82.3,22.8 Z M67.8,7.5 C67.6,7.5 67.5,7.4 67.4,7.4 C67.3,7.4 67.3,7.2 67.3,6.9 C67.3,6.6 67.4,6.5 67.7,6.5 L74.1,6.5 L74.1,4.1 L74,1.1 C74,1 74.1,0.9 74.1,0.9 C74.1,0.9 74.3,0.9 74.5,1 L76.8,1.6 C77,1.7 77.1,1.7 77.2,1.8 C77.3,1.9 77.4,2 77.4,2 L77.4,2 C77.4,2.1 77.4,2.1 77.4,2.1 C77.4,2.1 77.4,2.2 77.3,2.3 L76.4,3.3 L76.3,6.3 L80.5,6.3 L81.3,4.8 C81.5,4.4 81.7,4.1 81.8,4.1 C81.9,4 82,4 82.1,4.1 C82.2,4.2 82.4,4.4 82.7,4.7 L84.2,6.5 C84.5,6.8 84.6,7.1 84.6,7.3 C84.6,7.5 84.5,7.6 84.3,7.6 L76.2,7.6 L76.1,11.8 L80.4,11.8 L81,10.8 C81.2,10.5 81.3,10.3 81.4,10.3 C81.5,10.3 81.7,10.5 82.1,10.8 L83.2,11.9 C83.5,12.2 83.6,12.4 83.7,12.4 C83.7,12.5 83.7,12.5 83.7,12.6 C83.7,12.7 83.6,12.9 83.4,13.1 L83,13.8 L83,16.8 L83.1,19.9 C82.9,20.3 82.6,20.6 82.2,20.7 C81.8,20.8 81.5,20.9 81.3,20.9 C81,20.9 80.9,20.7 80.9,20.5 L80.9,19.3 L71,19.3 L71,20.7 C71,20.9 70.9,21.1 70.6,21.3 C70.4,21.5 69.9,21.6 69.2,21.6 C69.1,21.6 68.9,21.6 68.9,21.5 C68.9,21.4 68.8,21.3 68.7,21.1 L68.8,17.8 L68.8,13.9 L68.7,10.5 C68.8,10.4 68.8,10.3 68.9,10.3 C69,10.3 69.1,10.4 69.3,10.5 L71.2,11.8 L74,11.8 L74.1,7.6 L67.8,7.5 L67.8,7.5 Z M72.8,12.9 L70.9,12.9 L70.9,18.1 L72.8,18.1 L72.8,12.9 Z M73.4,27.8 L73.4,34 C73.4,34.5 73.6,34.8 73.9,34.9 C74.2,35 74.7,35 75.4,35 C76.7,35 77.6,34.9 78.2,34.7 C78.8,34.5 79.2,34.1 79.4,33.8 C79.6,33.4 79.9,32.8 80.1,32.1 L80.8,29.7 C80.9,29.4 81,29.3 81.1,29.3 C81.2,29.3 81.2,29.4 81.2,29.5 C81.2,29.6 81.2,29.7 81.2,29.7 C81.2,29.7 81.2,29.8 81.2,29.9 L81.1,32 C81.1,32.2 81.1,32.3 81.1,32.5 C81.1,32.7 81.1,32.8 81.2,33 C81.3,33.4 81.4,33.8 81.6,34.1 C81.8,34.4 81.9,34.7 81.9,34.8 C81.9,34.9 82,35.1 82,35.3 C82,36.1 81.5,36.7 80.7,37.2 C79.8,37.7 78.5,37.9 76.6,37.9 C75,37.9 73.8,37.8 73,37.6 C72.2,37.4 71.8,37 71.6,36.5 C71.4,36 71.4,35.5 71.4,35.2 L71.4,28.8 L71.3,25.4 C71.3,25.3 71.4,25.3 71.4,25.3 L71.9,25.5 L74.1,26.3 C74.2,26.4 74.3,26.5 74.3,26.6 C74.3,26.8 74.2,27 74,27.2 L73.4,27.8 Z M76.7,12.9 L74.9,12.9 L74.7,13.2 L74.7,18.1 L76.7,18.1 L76.7,12.9 Z M74.8,25.1 C74.8,25 74.9,24.9 75,24.9 C75.1,24.9 75.3,24.9 75.5,25.1 C75.5,25.1 75.8,25.3 76.3,25.6 C76.8,25.9 77.3,26.4 77.8,27.2 C78.3,28 78.5,28.6 78.5,29.2 C78.5,29.8 78.4,30.3 78.3,30.7 C78,31.3 77.6,31.6 77.1,31.6 C76.8,31.6 76.6,31.5 76.4,31.3 C76.2,31.1 76,30.9 75.9,30.6 C75.8,30.3 75.8,29.8 75.8,29 C75.8,28.2 75.7,27.6 75.7,27.3 C75.6,26.9 75.5,26.5 75.4,26.2 L75,25.5 C74.8,25.2 74.8,25.2 74.8,25.1 Z M80.8,12.9 L78.8,12.9 L78.5,13.3 L78.5,18.2 L80.8,18.2 L80.8,12.9 Z M81.2,26.7 C81.2,26.6 81.3,26.5 81.5,26.5 C81.5,26.5 81.9,26.7 82.5,27.1 C83.1,27.5 83.9,28.1 84.7,29 C85.5,29.9 86,31 86,32.2 C86,32.5 85.9,32.9 85.8,33.4 C85.7,33.9 85.4,34.2 85,34.5 C84.6,34.8 84.1,34.6 83.7,34.1 C83.5,33.8 83.3,33.5 83.2,33.2 C83.1,32.8 83,32.2 82.9,31.4 C82.8,30.5 82.6,29.8 82.4,29.3 C82.2,28.7 81.9,28.2 81.6,27.7 L81.3,27 C81.2,26.9 81.2,26.8 81.2,26.7 Z" id="形状"></path>
                <path d="M91.9,25.3 L91.9,9.4 L89,9.4 C88.8,9.4 88.6,9.2 88.6,8.8 C88.6,8.4 88.7,8.2 89,8.2 L91.9,8.2 L91.9,4.1 L91.8,0.7 C91.8,0.6 91.9,0.5 91.9,0.5 C91.9,0.5 92.1,0.5 92.4,0.7 L94.4,1.5 C94.7,1.6 94.8,1.7 94.9,1.8 C94.9,1.9 95,1.9 95,2 C95,2.1 94.9,2.2 94.7,2.4 L94.2,2.9 L94.2,8.3 L98,8.3 L98,3.8 L97.9,0.9 C97.9,0.8 98,0.8 98,0.8 L98.6,1 L100.6,1.7 C100.8,1.8 100.9,1.9 101,1.9 C101,2 101.1,2 101.1,2.1 C101.1,2.2 101,2.3 100.9,2.4 L100.3,3.1 L100.3,8.3 L100.5,8.3 L101.4,6.6 C101.6,6.3 101.7,6.2 101.8,6.2 C101.9,6.2 102.1,6.4 102.3,6.8 L103.5,8.8 C103.6,8.9 103.6,9 103.6,9.1 C103.6,9.2 103.6,9.2 103.6,9.2 C103.6,9.2 103.6,9.2 103.6,9.3 C103.6,9.4 103.5,9.4 103.4,9.4 L101.3,9.4 L101.3,9.4 L100.2,9.4 L100.2,25.1 L101,23.7 C101.2,23.4 101.3,23.2 101.4,23.2 C101.5,23.2 101.6,23.3 101.7,23.6 L103,25.8 C103.1,26 103.2,26.2 103.2,26.3 C103.2,26.4 103.1,26.5 102.8,26.5 L89,26.5 L88.9,26.5 C88.7,26.5 88.6,26.4 88.6,26.4 C88.6,26.4 88.5,26.2 88.5,25.9 C88.5,25.6 88.6,25.5 88.9,25.5 L91.9,25.5 L91.9,25.3 Z M95,29.9 C93.8,31.5 92.7,32.8 91.7,33.9 C90.7,35 90,35.7 89.7,35.9 L89,36.6 C88.9,36.7 88.8,36.8 88.7,36.8 C88.7,36.8 88.6,36.8 88.6,36.8 C88.6,36.8 88.6,36.7 88.6,36.6 C88.6,36.5 88.6,36.4 88.8,36.2 L89.4,35.3 C89.9,34.5 90.5,33.5 91.1,32.2 C91.8,30.9 92.2,29.9 92.5,29 L92.9,27.9 L93.1,27.1 C93.1,27 93.2,27 93.2,27.1 L93.6,27.4 L95.4,28.9 C95.6,29 95.6,29.1 95.7,29.2 C95.7,29.3 95.8,29.3 95.8,29.4 C95.8,29.5 95.7,29.6 95.5,29.6 L95,29.9 Z M98,13.5 L98,9.4 L94.2,9.4 L94.2,13.5 L98,13.5 Z M98,19.4 L98,14.6 L94.2,14.6 L94.2,19.4 L98,19.4 Z M98,25.3 L98,20.5 L94.2,20.5 L94.2,25.3 L98,25.3 Z M97.4,29 L97,28.4 L96.8,28.1 C96.8,28.1 96.8,28 96.8,28 C96.8,27.8 96.9,27.8 97,27.8 C97.2,27.8 97.8,28.2 98.7,28.9 C99.6,29.6 100.3,30.3 100.7,31 C101.1,31.7 101.2,32.3 101.2,33 C101.2,33.3 101.1,33.6 101.1,33.9 C101.1,34.2 100.9,34.5 100.7,34.8 C100.5,35.1 100.2,35.2 100,35.2 C99.6,35.2 99.4,35 99.2,34.6 C99,34.2 98.9,33.7 98.8,33.3 L98.6,32 C98.5,31.4 98.4,30.9 98.2,30.5 C98,30.1 97.7,29.4 97.4,29 Z M106.1,14.9 L111.6,14.9 L112.7,13 C112.9,12.7 113,12.5 113.1,12.5 C113.2,12.5 113.3,12.7 113.6,13 L115.2,15.4 C115.3,15.6 115.4,15.7 115.4,15.8 C115.4,15.9 115.3,16 115.1,16 L112.3,16 C112.2,16.1 112.2,16.2 112.1,16.4 L112,16.5 L111.8,16.7 L111.8,34 L111.9,36.9 C111.8,37.5 111.5,37.9 111.2,38.1 C110.9,38.3 110.5,38.4 110.2,38.4 C109.9,38.4 109.7,38.3 109.6,38.2 C109.5,38.1 109.4,37.9 109.4,37.6 L109.5,33.5 L109.5,16 L106.3,16 C106.3,18.3 106.2,20.2 106.2,21.7 C106.2,23.2 106,24.7 105.9,25.9 C105.7,27.2 105.5,28.3 105.1,29.5 C104.7,30.6 104.4,31.6 103.9,32.4 C103.4,33.2 103,34 102.5,34.7 L101.2,36.4 C100.9,36.8 100.7,37 100.6,37.2 L99.9,37.9 C99.8,38 99.7,38.1 99.6,38.1 C99.5,38.1 99.5,38.1 99.4,38 C99.3,37.9 99.4,37.9 99.4,37.8 C99.4,37.7 99.5,37.6 99.6,37.4 L100.2,36.6 C100.9,35.7 101.5,34.6 102,33.5 C102.5,32.4 102.9,31.1 103.2,29.7 C103.5,28.3 103.7,27.1 103.8,26 C103.9,25 104,23.6 104,21.9 C104,20.2 104.1,18.7 104.1,17.3 C104.1,15.9 104.1,15 104.1,14.4 C104.1,13.6 104.1,13 104.1,12.4 L104,8.1 L104,7.2 L103.8,4.1 C103.8,4 103.9,4 103.9,4 L104.4,4.4 L106.8,6.1 C108,5.4 109,4.7 109.7,4.1 C110.4,3.5 111,3 111.2,2.7 L111.8,1.9 C112,1.7 112.1,1.5 112.2,1.5 C112.3,1.5 112.4,1.7 112.7,2.1 L114.2,4.4 C114.4,4.7 114.5,4.9 114.5,5 C114.5,5.1 114.4,5.2 114.1,5.2 L113.3,5.3 C113.1,5.3 112.5,5.4 111.7,5.6 L109.2,6.1 L106.1,6.7 L106.1,14.9 Z" id="形状"></path>
                <polygon id="路径" points="135.7 17.5 135.7 21 118 21 118 17.5"></polygon>
                <path d="M160.5,25.7 L161.8,23.5 C161.9,23.3 162,23.2 162.1,23.2 C162.2,23.2 162.4,23.3 162.6,23.5 L164.5,25.8 C164.7,26.1 164.8,26.3 164.8,26.5 C164.8,26.7 164.7,26.8 164.4,26.8 L158,26.8 L158,34.3 L158.1,37.3 C158,37.5 157.9,37.8 157.7,38 C157.5,38.3 157.1,38.4 156.6,38.4 C156.1,38.4 155.7,38.4 155.6,38.3 C155.5,38.2 155.4,38 155.3,37.9 L155.4,33.1 L155.4,26.8 L146.9,26.8 C146.9,27 146.9,27.2 146.9,27.3 L146.8,28.7 C146.6,30.9 146.2,32.5 145.6,33.5 C145,34.5 144.1,35.4 143.1,36.2 C142.1,37 141.1,37.5 140.2,37.9 L139.1,38.3 C139,38.3 139,38.4 138.9,38.4 C138.9,38.4 138.8,38.4 138.8,38.4 C138.8,38.4 138.7,38.4 138.7,38.3 C138.7,38.3 138.7,38.2 138.7,38.1 C138.7,38 138.8,37.9 138.9,37.8 L140,36.9 C141.9,35.5 143.1,33.9 143.5,32.4 C143.9,30.9 144.1,29.7 144.2,28.9 C144.2,28.2 144.3,27.5 144.3,26.9 L138.6,26.9 C138.4,26.9 138.3,26.7 138.2,26.3 C138.2,25.9 138.3,25.7 138.6,25.7 L144.4,25.7 C144.4,25.5 144.4,25.3 144.4,25.1 C144.4,24.9 144.4,24.8 144.4,24.6 C144.4,24.4 144.4,24.1 144.4,23.7 C144.4,23.3 144.4,23.1 144.4,23 L144.4,22.7 L144.4,21 L144.3,19.7 C144.3,19.6 144.4,19.6 144.5,19.5 L144.9,19.6 L147.3,20.4 C147.5,20.5 147.7,20.6 147.8,20.7 C147.9,20.8 147.9,20.9 147.9,21 C147.9,21.1 147.8,21.2 147.7,21.4 L147.1,22.1 C147.1,22.9 147,23.5 147,23.9 L147,24.8 L147,25.7 L155.4,25.7 L155.4,22.8 L155.3,19.5 C155.3,19.4 155.4,19.4 155.4,19.3 L155.8,19.4 L158.4,20.2 C158.7,20.3 158.8,20.4 158.8,20.6 C158.8,20.8 158.7,21 158.5,21.2 L157.9,21.8 L157.9,25.6 L160.5,25.6 L160.5,25.7 Z M147.3,6.7 C147.5,6.2 147.7,5.6 147.9,5 C148.2,4.3 148.3,3.7 148.5,3.3 L149,1.6 L149.3,0.5 C149.3,0.5 149.4,0.5 149.4,0.5 C149.4,0.5 149.6,0.6 149.8,0.7 L152.8,2.4 C153,2.5 153.1,2.6 153.1,2.7 C153.1,2.8 153.2,2.9 153.2,3 C153.2,3.1 153.1,3.3 152.7,3.4 L152.1,3.7 C151.1,5.7 150.5,6.8 150.5,6.8 L159.1,6.8 L160.4,4.6 C160.6,4.3 160.7,4.1 160.8,4.1 C160.9,4.1 161.1,4.2 161.3,4.5 L163.4,6.9 C163.5,7.1 163.6,7.2 163.7,7.3 C163.8,7.4 163.8,7.5 163.8,7.6 C163.8,7.7 163.8,7.8 163.7,7.8 C163.6,7.9 163.5,7.9 163.4,7.9 L159.3,7.9 L158.5,7.9 L155.1,7.9 C155.8,9.5 156.8,11 158,12.3 C159.2,13.6 160.3,14.5 161.3,15 C162.3,15.5 163.3,15.9 164.2,16.2 L164.9,16.4 C165.1,16.5 165.2,16.6 165.2,16.8 C165.2,17 165.1,17.1 164.9,17.2 L164.3,17.4 C164,17.5 163.8,17.7 163.6,17.9 C163.4,18.1 163.2,18.4 163,18.8 C162.8,19.1 162.7,19.4 162.6,19.6 C162.6,19.8 162.5,19.9 162.5,20 C162.5,20.1 162.4,20.1 162.4,20.1 C162.2,20.1 161.4,19.6 160,18.5 C158.6,17.4 157.5,16.1 156.8,14.6 C156.1,13.1 155.6,12 155.3,11.1 C155,10.2 154.8,9.5 154.7,9 L154.6,8.6 L154.5,8 L150.2,8 C150.1,8.2 150,8.3 150,8.3 L149.1,9.8 C147.7,12.2 146.4,14.1 145,15.5 C143.6,16.9 142.7,17.9 142.1,18.4 C141.5,18.9 140.9,19.4 140.2,19.9 L139.2,20.7 C139.1,20.7 139.1,20.8 139,20.8 C138.9,20.8 138.9,20.8 138.8,20.7 C138.7,20.6 138.8,20.6 138.8,20.5 C138.8,20.4 138.9,20.3 139,20.1 L139.8,19.2 C140.9,18.1 141.9,16.8 142.8,15.4 C143.7,14 144.4,12.9 144.9,12 C145.4,11.1 145.8,10.3 146.2,9.4 L146.7,8.3 L146.9,7.9 L139.6,7.9 C139.4,7.9 139.3,7.7 139.2,7.3 C139.2,6.9 139.3,6.7 139.6,6.7 L147.3,6.7 L147.3,6.7 Z M149.9,17.3 L144.8,17.3 C144.6,17.3 144.4,17.1 144.4,16.7 C144.4,16.3 144.5,16.1 144.8,16.1 L149.9,16.1 L149.9,12.7 L149.8,9.8 C149.9,9.7 150,9.6 150.2,9.7 L152.9,10.4 C153,10.4 153.1,10.5 153.2,10.6 C153.3,10.7 153.3,10.8 153.3,10.9 C153.3,11 153.2,11.2 153,11.4 L152.4,12.1 L152.4,16.2 L153.9,16.2 L154.9,14.5 C155,14.3 155.1,14.2 155.2,14.2 C155.3,14.2 155.4,14.3 155.6,14.5 L157.1,16.4 C157.2,16.6 157.3,16.7 157.3,16.8 C157.3,16.9 157.3,16.9 157.3,17 C157.3,17.1 157.3,17.1 157.2,17.2 C157.1,17.3 157,17.3 156.8,17.3 L152.3,17.3 L152.3,20.8 L152.4,23 C152.2,23.8 151.5,24.2 150.4,24.2 C150.2,24.2 150,24.2 149.9,24.1 C149.8,24 149.7,23.9 149.6,23.7 L149.7,20 L149.7,17.3 L149.9,17.3 Z" id="形状"></path>
                <path d="M175,5.1 L168,5.1 C167.7,5.1 167.6,4.9 167.6,4.6 L167.6,4.3 C167.6,4.1 167.7,4 167.8,4 L174.8,4 L175.6,2.6 C175.7,2.4 175.8,2.3 175.8,2.3 C175.8,2.3 175.8,2.3 175.8,2.3 L176,2.5 L177.8,4.3 C177.9,4.4 177.9,4.5 178,4.5 C178,4.6 178,4.6 178,4.7 C178,4.8 177.9,4.9 177.8,5 L177,5.8 L175.9,19.2 L176.5,19.2 L177,18.2 C177.1,18 177.2,17.9 177.2,17.9 C177.2,17.9 177.3,17.9 177.3,18 C177.3,18.1 177.4,18.1 177.5,18.2 L179.4,20.1 C179.5,20.2 179.6,20.3 179.6,20.4 C179.6,20.5 179.5,20.6 179.3,20.8 L178.8,21.4 C178.7,22.4 178.7,23.1 178.7,23.6 L178.5,27.1 C178.4,29 178.3,30.5 178.1,31.6 C177.9,32.7 177.7,33.6 177.5,34.3 C177.2,35 177,35.6 176.7,35.9 C176.4,36.2 176,36.6 175.4,36.9 C174.9,37.2 174.4,37.4 173.9,37.5 C173.8,37.5 173.8,37.5 173.7,37.5 C173.6,37.5 173.6,37.3 173.6,37 C173.6,36.7 173.4,36.2 173.1,35.6 C172.8,35 172.4,34.5 171.9,34.1 L171.3,33.7 C171.2,33.7 171.2,33.6 171.2,33.6 C171.2,33.6 171.2,33.5 171.2,33.3 C171.2,33.1 171.3,33.1 171.4,33.2 L172,33.4 C172.8,33.6 173.5,33.7 173.9,33.7 C174.6,33.7 175.1,33.5 175.3,33.1 C175.5,32.7 175.7,32.1 175.8,31.5 C175.9,30.9 176,30.1 176.1,29.2 C176.2,28.3 176.3,27.4 176.3,26.4 C176.4,25.5 176.4,24.5 176.4,23.4 C176.4,22.3 176.4,21.5 176.4,20.8 L176.4,20.3 L170.3,20.3 L169.5,22 C169.4,22.2 169.4,22.2 169.3,22.3 C169.2,22.4 169.2,22.2 169,22 L168,20.6 C167.7,20.3 167.6,20.1 167.6,20 C167.6,20 167.7,19.9 167.8,19.7 L168.2,19.1 C168.4,16.4 168.6,14.1 168.8,12.2 C169,10.2 169.1,9 169.1,8.5 L169.2,6.5 L169.2,5.7 C169.2,5.6 169.2,5.6 169.3,5.5 L169.6,5.7 L172.1,6.9 C172.2,6.9 172.2,7 172.2,7.1 C172.2,7.2 172.1,7.3 172,7.5 L171.3,8.1 C171.1,10.1 171,11.8 170.8,13.2 C170.7,14.6 170.5,16.5 170.3,19 L173.5,19 L175,5.1 Z M169.8,30.4 C169.4,30.8 169.2,31 169.1,31 C169,31 169,30.8 168.9,30.5 L167.9,27.7 C167.8,27.5 167.8,27.4 167.8,27.3 C167.8,27.2 168,27.1 168.4,27 L169.2,26.8 C169.9,26.6 171,26.2 172.3,25.7 C173.6,25.2 174.7,24.7 175.4,24.4 L175.9,24.2 C176,24.2 176,24.2 176.1,24.2 C176.1,24.3 176.1,24.3 176.1,24.4 C176.1,24.5 176.1,24.6 176,24.6 L175.1,25.4 L173,27.2 L171.1,28.9 L169.8,30.4 Z M180.3,14.3 L180.3,10.6 L180.2,7.4 C180.2,7.4 180.2,7.3 180.3,7.3 C180.4,7.3 180.5,7.3 180.7,7.5 L183.2,8.5 C183.3,8.5 183.4,8.6 183.4,8.7 C183.4,8.8 183.5,8.8 183.5,8.9 C183.5,9 183.4,9.1 183.3,9.3 L182.7,10 L182.7,13.5 L185.1,12.6 L185.1,4.5 L185,1.4 C185,1.3 185.1,1.3 185.1,1.3 C185.1,1.3 185.4,1.4 185.8,1.5 L187.8,2.2 C188,2.3 188.1,2.4 188.1,2.5 C188.1,2.6 188,2.7 187.9,2.8 L187.2,3.7 L187.2,11.8 L189.7,10.9 L190.4,9.4 C190.5,9.2 190.5,9.1 190.6,9.1 C190.7,9.1 190.7,9.1 190.9,9.2 L192.9,10.9 C193.1,11.1 193.2,11.2 193.2,11.2 C193.2,11.3 193.2,11.3 193.2,11.3 C193.2,11.3 193.2,11.4 193.1,11.5 C193,11.6 193,11.7 193,11.7 L192.4,12.7 C192.4,14.7 192.4,16.3 192.4,17.6 C192.4,18.9 192.3,20.1 192.3,21.4 C192.3,22.6 192.2,23.5 192.1,24.2 C192,24.9 191.9,25.5 191.6,26.2 C191.3,26.9 190.9,27.4 190.4,27.7 C189.8,27.9 189.5,28.1 189.4,28 C189.3,28 189.2,27.7 189.1,27 C189,26.4 188.7,25.9 188.3,25.5 L187.7,25 C187.6,24.9 187.6,24.8 187.6,24.7 C187.6,24.6 187.7,24.5 187.8,24.5 L188,24.5 L188.6,24.6 C188.8,24.6 188.9,24.6 189,24.6 C189.5,24.6 189.7,24.2 189.8,23.6 C189.9,23 190,22.3 190,21.6 C190,20.9 190.1,20.1 190.1,19.1 C190.1,18.1 190.1,17.1 190.1,16.1 C190.1,15.1 190.1,14.2 190.1,13.4 L190.1,12.8 L190.1,12 L187.3,13 L187.3,26.1 L187.4,29.1 C187.4,29.4 187.3,29.7 187.2,29.8 C187.1,29.9 186.9,30.1 186.7,30.2 C186.5,30.3 186.2,30.4 185.9,30.4 C185.7,30.4 185.6,30.4 185.4,30.3 C185.2,30.2 185,30.1 185,30 C185,29.9 184.9,29.8 184.9,29.6 L185.1,25.8 L185.1,13.7 L182.6,14.6 L182.6,31.5 C182.6,32.1 182.7,32.5 182.8,32.7 C182.9,32.9 183.2,33.1 183.7,33.3 C184.2,33.5 185.3,33.6 187,33.6 C189,33.6 190.3,33.5 190.8,33.2 C191.3,32.9 191.7,32.6 191.9,32.3 C192.2,32 192.4,31.4 192.6,30.7 C192.8,30 193,29.2 193.2,28.6 L193.7,26.8 C193.8,26.6 193.8,26.5 193.9,26.5 C194,26.5 194,26.6 194.1,26.8 L194,28.3 C193.9,29.6 193.8,30.5 193.8,30.8 C193.8,31.3 193.9,31.7 194,32 L194.4,32.8 C194.5,33 194.6,33.2 194.6,33.4 C194.6,33.5 194.6,33.7 194.6,33.8 C194.6,34.6 194.3,35.2 193.8,35.7 C193.3,36.2 192.3,36.5 190.8,36.7 C189.3,36.9 188.2,36.9 187.5,36.9 C186.1,36.9 184.6,36.7 183.1,36.4 C181.6,36 180.8,35.5 180.6,34.7 C180.4,33.9 180.3,33.3 180.3,32.8 L180.3,15.4 L177.5,16.4 C177.3,16.5 177.1,16.3 177.1,16 C177.1,15.7 177.1,15.4 177.3,15.3 L180.3,14.3 Z" id="形状"></path>
                <path d="M211.2,3.7 C211.5,4.4 212.1,5.6 212.9,7.2 C213.7,8.8 214.9,10.3 216.4,11.6 C217.9,12.9 219.2,13.9 220.2,14.4 C221.2,15 222,15.3 222.5,15.4 L223.6,15.6 C223.8,15.7 223.9,15.7 223.9,15.9 C223.9,16 223.8,16.1 223.7,16.2 L222.8,16.7 C222.1,17.1 221.6,17.6 221.4,18.4 L221.1,19.3 L221,19.6 C221,19.7 220.9,19.6 220.8,19.6 L220,19.1 C219.5,18.7 218.7,18.1 217.8,17.3 C216.9,16.5 215.9,15.2 214.7,13.6 C213.5,12 212.7,10.3 212.2,8.6 L210.6,4.1 C209.7,6 208.7,7.9 207.7,9.7 C206.7,11.5 205.5,13.4 204,15.2 C202.5,17 201.2,18.4 200.1,19.4 C199,20.4 198.3,21 198,21.1 L197.1,21.6 C197,21.7 197,21.7 196.9,21.6 C196.9,21.5 196.9,21.5 196.9,21.4 C196.9,21.3 196.9,21.2 197,21.1 L197.8,20.4 C198.1,20.1 198.8,19.3 199.9,18 C201,16.7 202.3,14.5 203.9,11.4 C205.5,8.3 206.7,5.4 207.5,2.6 L207.8,1.6 C207.9,1.1 208,0.8 208,0.8 C208,0.8 208.1,0.8 208.3,0.9 L211.9,2.5 C211.9,2.5 212,2.6 212.1,2.6 C212.2,2.7 212.2,2.7 212.2,2.8 C212.2,2.9 212.1,3 212,3.1 L211.2,3.7 Z M212.7,15.6 L213.8,13.9 C213.9,13.7 214,13.7 214,13.7 C214,13.7 214.1,13.7 214.2,13.9 L216.1,16.2 C216.2,16.3 216.2,16.4 216.2,16.4 C216.2,16.5 216.2,16.5 216.2,16.6 C216.2,16.7 216.1,16.7 215.9,16.7 L212,16.7 C212,16.9 211.9,17 211.8,17.1 C211.7,17.2 211.6,17.3 211.5,17.4 L211.5,22.8 L216.2,22.8 L217.2,21 C217.4,20.7 217.5,20.6 217.5,20.6 C217.5,20.6 217.6,20.7 217.8,20.9 L219.9,23.4 C219.9,23.4 219.9,23.5 219.9,23.5 C219.9,23.6 219.9,23.6 219.9,23.6 C219.9,23.6 219.9,23.7 219.8,23.7 C219.8,23.8 219.7,23.8 219.7,23.8 L211.3,23.8 L211.3,35.1 L212.5,35.1 C212.7,34.5 213,33.5 213.4,32.3 C213.8,31.1 214.1,29.7 214.5,28.2 L215,25.9 L215.1,25.2 C215.1,25.2 215.2,25.1 215.2,25.1 L215.6,25.3 L217.7,26.6 C218,26.8 218.2,26.9 218.3,27.1 C218.4,27.3 218.4,27.3 218.4,27.4 C218.4,27.5 218.4,27.5 218.3,27.5 L217.3,27.9 C216.4,29.6 215.5,31 214.9,32.2 C214.2,33.4 213.7,34.3 213.3,35 L218.1,35 L219.2,33 C219.3,32.8 219.4,32.6 219.5,32.6 C219.6,32.6 219.7,32.6 219.8,32.8 L222.2,35.7 C222.3,35.8 222.3,35.9 222.4,36 C222.5,36.1 222.4,36.2 222.1,36.2 L220.4,36.2 L198.2,36.2 C198,36.2 197.9,36 197.8,35.6 C197.8,35.2 197.9,35 198.2,35 L209,35 L209,24 L200.7,24 L200.6,24 C200.5,24 200.4,23.9 200.3,23.8 C200.2,23.7 200.2,23.5 200.2,23.3 C200.2,23.1 200.3,22.9 200.5,22.9 L208.9,22.9 L208.9,16.8 L207.4,16.8 L204.1,16.8 C203.9,16.8 203.7,16.6 203.7,16.2 C203.7,15.8 203.8,15.6 204.1,15.6 L212.7,15.6 L212.7,15.6 Z M207,32.1 C207,32.9 206.9,33.5 206.5,34 C206.2,34.5 205.8,34.7 205.3,34.7 C204.8,34.7 204.5,34.4 204.2,33.8 C204,33.4 203.9,32.7 203.9,31.7 C203.9,30.7 203.9,30 203.9,29.6 C203.8,28.9 203.7,28.3 203.5,27.9 C203.3,27.5 203.2,27.1 203,26.7 C202.8,26.4 202.7,26.1 202.6,25.9 C202.5,25.7 202.4,25.5 202.5,25.4 C202.6,25.3 202.7,25.2 202.9,25.4 C205.5,27.7 206.9,29.9 207,32.1 Z" id="形状"></path>
                <path d="M236.6,3.4 L237.4,1.7 C237.5,1.5 237.6,1.3 237.7,1.3 C237.8,1.3 238,1.4 238.2,1.7 L239.7,3.5 C239.8,3.6 239.9,3.7 239.9,3.8 C240,3.9 240,4 240,4 C240,4.1 239.9,4.2 239.8,4.2 C239.7,4.3 239.6,4.3 239.5,4.3 L238.9,4.3 L238.9,4.3 L226.6,4.3 C226.4,4.3 226.3,4.1 226.3,3.7 C226.3,3.3 226.4,3.1 226.6,3.1 L236.6,3.1 L236.6,3.4 Z M237.1,19.6 L229.2,19.6 L229.2,36.5 C229.2,37.1 228.9,37.5 228.4,37.7 C227.9,37.9 227.5,37.9 227.4,37.7 C227.3,37.5 227.2,37.3 227.2,37.1 L227.3,32.5 L227.3,21.7 L227.2,17.2 C227.2,17.1 227.3,17.1 227.3,17.1 C227.3,17.1 227.5,17.2 227.8,17.4 L229.3,18.5 L237.1,18.5 L237.7,17.2 C237.8,17 237.9,16.9 237.9,16.9 C237.9,16.9 238.1,17 238.2,17.1 L239.9,18.8 C240,19 240.1,19.1 240.1,19.2 C240.1,19.3 240,19.5 239.9,19.7 L239.3,20.4 L239.3,35 C239.3,35.3 239.3,35.6 239.2,35.9 C239.1,36.2 239,36.5 238.6,36.8 C238.3,37.1 237.9,37.3 237.4,37.5 C236.9,37.7 236.7,37.8 236.6,37.8 C236.5,37.8 236.4,37.8 236.4,37.6 C236.4,37.5 236.4,37.4 236.4,37.1 C236.4,36.8 236.4,36.5 236.3,36.2 C236.2,35.9 236.1,35.6 236,35.4 C235.9,35.2 235.7,35.1 235.4,34.9 L234.5,34.4 C234.4,34.4 234.4,34.3 234.4,34.2 C234.4,34.1 234.4,34.1 234.4,34 C234.4,34 234.4,33.9 234.4,33.9 C234.4,33.8 234.5,33.8 234.6,33.8 L235.6,33.9 C235.6,33.9 235.8,33.9 236,34 C236.2,34 236.4,34.1 236.4,34 C236.5,34 236.7,34 236.8,33.9 C237,33.8 237,33.8 237.1,33.7 C237.1,33.6 237.1,33.4 237.1,33.1 L237.1,19.6 L237.1,19.6 Z M230.7,14.5 L230.7,15.5 C230.7,15.6 230.6,15.8 230.5,16.1 C230.4,16.4 230.1,16.5 229.6,16.5 C229.2,16.5 228.9,16.5 228.8,16.3 C228.7,16.2 228.6,16 228.6,15.9 L228.7,13.1 L228.7,9.5 L228.6,6.6 C228.6,6.5 228.7,6.5 228.7,6.5 C228.7,6.5 228.8,6.6 229,6.7 L230.6,7.8 L235.2,7.8 L235.7,6.8 C235.8,6.6 235.9,6.5 236,6.4 C236.1,6.3 236.2,6.4 236.4,6.6 L237.9,8.1 C238.2,8.4 238.3,8.6 238.3,8.7 C238.3,8.8 238.2,8.9 238.1,9.1 L237.6,9.7 L237.6,13.3 L237.7,15 C237.7,15.2 237.6,15.3 237.6,15.5 C237.5,15.6 237.4,15.8 237.1,16 C236.8,16.2 236.3,16 236,16 C235.7,16 235.5,15.9 235.4,15.8 C235.3,15.7 235.3,15.5 235.3,15.3 L235.3,14.6 L230.7,14.6 L230.7,14.5 Z M234.5,25.6 L235,24.6 C235.1,24.4 235.2,24.3 235.2,24.3 C235.2,24.3 235.4,24.4 235.6,24.6 L236.5,25.7 C236.7,25.9 236.8,26.1 236.9,26.3 C237,26.5 236.8,26.6 236.5,26.6 L235.7,26.6 L235.7,26.6 L234.3,26.6 L233.8,27.1 L233.8,32.4 L233.8,34.4 C233.7,34.7 233.6,35 233.3,35.2 C233,35.4 232.8,35.5 232.5,35.5 C232.2,35.5 232,35.4 231.9,35.3 C231.8,35.2 231.7,35 231.7,34.8 L231.8,31.9 L231.8,26.6 L229.8,26.6 L229.7,26.6 C229.6,26.6 229.5,26.5 229.5,26.5 C229.5,26.5 229.4,26.4 229.5,26.2 L229.5,26.1 C229.5,25.7 229.7,25.5 229.9,25.5 L233.2,25.5 C233.3,25.1 233.4,24.6 233.5,24 L233.9,22 L234.2,20.4 L234.3,19.6 C234.3,19.6 234.3,19.6 234.3,19.5 C234.3,19.5 234.4,19.6 234.6,19.7 L236.3,21 C236.4,21.1 236.4,21.1 236.5,21.2 C236.5,21.3 236.6,21.3 236.6,21.4 C236.6,21.4 236.6,21.5 236.5,21.6 C236.4,21.7 236.3,21.7 236.2,21.8 L235.7,22 C235.4,22.5 235.2,22.8 235,23.1 C234.8,23.4 234.6,23.8 234.4,24.3 C234.1,24.8 233.9,25.2 233.8,25.5 L234.5,25.5 L234.5,25.6 Z M230.2,21.1 L229.9,20.5 C229.9,20.4 229.8,20.4 229.8,20.3 C229.8,20.3 229.8,20.2 229.8,20.2 C229.8,20.1 229.9,20.1 230,20.1 C230.1,20.1 230.5,20.4 231.3,20.8 C232.1,21.3 232.5,22 232.5,22.9 C232.5,23.8 232.4,24.5 232.2,24.8 C232,25.2 231.7,25.4 231.4,25.4 C231.1,25.4 230.9,25.3 230.8,25 C230.7,24.7 230.6,24.4 230.5,24 L230.5,22.7 C230.5,22.1 230.4,21.5 230.2,21.1 Z M235.3,13.4 L235.3,9 L230.7,9 L230.7,13.4 L235.3,13.4 Z M249.2,24.4 L247.1,24.4 L247.1,32.5 L250,32.1 C249.9,31.7 249.8,31.2 249.6,30.8 C249.4,30.4 249.2,29.8 248.9,29.2 L248.6,28.6 C248.5,28.5 248.5,28.4 248.5,28.2 C248.5,28.1 248.6,28 248.7,28 C248.8,28 249.4,28.5 250.4,29.5 C251.4,30.5 252.1,31.4 252.5,32.3 C252.9,33.2 253.2,34 253.2,34.7 C253.2,35.4 253.1,36 253,36.4 C252.9,36.7 252.7,37 252.5,37.3 C252.3,37.6 252,37.7 251.7,37.6 C251,37.6 250.6,36.9 250.5,35.7 L250.4,34 L250.2,32.9 C248.6,33.6 247.3,34.1 246.2,34.6 C245.1,35.1 244.3,35.4 243.8,35.6 L241.8,36.5 L241.1,36.8 C241,37 241,37 241,37 C241,37 240.9,36.8 240.8,36.5 L240.1,34 L239.9,33.2 C239.9,33.1 240,33.1 240,33.1 C240.1,33.1 240.4,33 241.1,33 L242.6,33 C242.6,33 243,33 243.6,32.9 L244.9,32.8 L244.9,24.5 L243.1,24.5 L243.1,26.7 C243.1,26.8 243,27.1 242.8,27.4 C242.6,27.7 242.2,27.9 241.6,27.9 C241.4,27.9 241.3,27.9 241.2,27.8 C241.1,27.7 241,27.5 240.9,27.2 L241,23.3 L241,13.8 L240.9,9.9 C240.9,9.8 241,9.8 241,9.8 C241,9.8 241.1,9.8 241.3,10 L243,11.5 L244.8,11.5 L244.8,7 L244.7,1.5 C244.7,1.4 244.8,1.4 244.8,1.4 C244.8,1.4 244.9,1.4 245,1.5 L247.5,2.4 C247.6,2.5 247.7,2.5 247.8,2.6 C247.9,2.7 247.9,2.8 247.9,2.8 C247.9,2.9 247.8,3 247.6,3.2 L247,3.9 L247,11.5 L248.9,11.5 L249.5,10.4 C249.6,10.1 249.7,10 249.8,10 C249.9,10 250,10.1 250.2,10.3 L251.6,11.7 C251.8,11.9 251.9,12 251.9,12.1 C251.9,12.2 251.9,12.2 251.9,12.3 C251.9,12.3 251.8,12.5 251.7,12.7 L251.2,13.5 L251.2,22.5 L251.3,25.2 C251.2,25.8 251,26.1 250.7,26.2 C250.4,26.3 250.1,26.4 249.7,26.4 C249.3,26.4 249.1,26.2 249.1,25.9 L249.1,24.4 L249.2,24.4 Z M245,12.5 L243.2,12.5 L243.2,23.3 L245,23.3 L245,12.5 Z M249.2,12.5 L247.1,12.5 L247.1,23.3 L249.2,23.3 L249.2,12.5 Z" id="形状"></path>
                <path d="M260.4,3.3 L263.7,3.3 L264.2,2.4 C264.5,1.9 264.6,1.6 264.7,1.6 C264.7,1.6 264.9,1.7 265.2,2 L266.8,3.6 C267,3.9 267.2,4 267.2,4.1 C267.2,4.2 267.2,4.2 267.2,4.3 C267.2,4.4 267.1,4.5 266.9,4.6 L266.1,5.4 L266.1,33.6 C266.1,34.3 266,34.9 265.9,35.3 C265.8,35.7 265.6,35.9 265.5,36.1 C265.4,36.3 264.9,36.5 264.3,36.8 C263.7,37.1 263.3,37.3 263.2,37.2 C263.1,37.2 263,37.1 263,37 C263,36.9 262.9,36.7 262.9,36.3 C262.9,35.9 262.7,35.4 262.4,34.9 C262.1,34.4 261.7,34 261.3,33.7 L260.9,33.5 C260.8,33.5 260.8,33.4 260.7,33.3 C260.6,33.2 260.6,33.1 260.7,33.1 C260.7,33 260.7,33 260.8,32.9 C260.9,32.8 260.9,32.8 261,32.8 L261.6,33 C262.5,33.2 263.1,33.3 263.4,33.2 C263.7,33.1 263.8,33 263.8,32.9 C263.9,32.8 263.9,32.3 263.9,31.3 L263.9,22.1 L260.4,22.1 C260.3,23 260.2,24 260.1,24.9 C260,25.8 259.8,26.9 259.6,28.1 C259.4,29.3 259.1,30.4 258.8,31.3 C258.5,32.2 258.1,33.2 257.7,34.1 C257.3,35.1 257,35.7 256.9,36 L256.4,36.8 C256.2,37.2 256.1,37.3 256,37.2 C255.9,37.1 255.9,37 255.9,36.9 C255.9,36.8 255.9,36.7 256,36.6 L256.4,35.5 C256.5,35.3 256.6,34.7 256.8,33.9 C257,33.1 257.3,31.7 257.6,29.9 C257.9,28.1 258.1,26.1 258.2,24 C258.3,21.9 258.3,19.8 258.2,17.6 C258.2,14.4 258.1,11.7 258.1,9.4 C258.1,7.1 258.1,5.7 258.1,5.2 L258.1,3.6 L258,1.8 C258,1.7 258,1.6 258.1,1.6 C258.2,1.6 258.3,1.6 258.6,1.8 L260.4,3.3 Z M264,11.8 L264,4.5 L260.5,4.5 L260.5,11.8 L264,11.8 Z M264,20.9 L264,12.9 L260.5,12.9 L260.5,20.9 L264,20.9 Z M276.3,4 L276.9,3 C277,2.8 277.1,2.7 277.2,2.7 C277.3,2.7 277.4,2.8 277.6,3 L279.5,5 C279.7,5.2 279.8,5.3 279.8,5.3 C279.8,5.3 279.8,5.4 279.8,5.4 C279.8,5.4 279.7,5.6 279.5,5.8 L278.9,6.4 C278.9,7.8 278.8,9.2 278.7,10.4 C278.6,11.6 278.4,12.6 278.1,13.2 C277.8,13.8 277.3,14.4 276.6,14.8 C275.9,15.2 275.5,15.5 275.3,15.4 C275.2,15.4 275.1,15.4 275.1,15.3 C275,15.2 275,14.8 274.9,14.1 C274.8,13.3 274.4,12.7 273.6,12.3 L273.1,12.1 C273,12.1 273,12 272.9,12 C272.8,12 272.8,11.9 272.8,11.8 C272.8,11.7 272.8,11.7 272.9,11.6 C273,11.5 273,11.5 273.1,11.5 L273.8,11.7 C274.2,11.8 274.6,11.8 275,11.8 C275.4,11.8 275.7,11.6 275.9,11.3 C276.1,11 276.2,10.5 276.2,9.7 C276.3,8.9 276.3,8.1 276.3,7.3 C276.3,6.5 276.4,5.9 276.4,5.5 L276.4,5 L271,5 L271,17.4 L277.4,17.4 L277.8,16.8 C278,16.5 278.1,16.3 278.1,16.3 C278.1,16.3 278.3,16.4 278.4,16.6 L280.2,18.7 C280.4,18.9 280.5,19 280.5,19.1 C280.5,19.2 280.6,19.3 280.6,19.3 C280.6,19.4 280.5,19.5 280.3,19.6 L279.6,20.1 C278.9,22.8 278.5,24.5 278.3,25.3 C278.1,26.1 277.7,27.3 277,29 C277.4,29.5 277.7,29.8 278,30.1 C278.3,30.4 278.8,30.8 279.6,31.3 C280.3,31.8 280.9,32.2 281.3,32.3 L282.1,32.7 L282.4,32.9 C282.5,32.9 282.5,33 282.5,33.2 C282.5,33.3 282.4,33.4 282.3,33.5 L282,33.6 L281.5,33.7 C281.3,33.8 281.1,33.9 280.9,34.1 C280.7,34.3 280.5,34.5 280.4,34.7 C280.3,34.9 280.2,35.1 280,35.4 C279.9,35.7 279.8,35.9 279.8,36 C279.8,36.1 279.7,36.1 279.7,36.1 C279.6,36.1 279.4,35.9 279.1,35.6 L278.2,34.6 C277.9,34.3 277.1,33.3 275.7,31.5 C275,32.5 274.5,33.1 274.3,33.4 C274.1,33.7 273.5,34.4 272.5,35.5 L272,36.1 C271.8,36.3 271.7,36.4 271.6,36.4 C271.5,36.4 271.5,36.4 271.4,36.4 C271.4,36.4 271.4,36.3 271.3,36.2 C271.2,36.1 271.4,35.9 271.5,35.7 L272,34.9 C272.1,34.7 272.5,34.1 273,33.1 C273.5,32.1 273.9,31.5 273.9,31.4 L274.7,29.8 C274.4,29 274.1,28.4 273.9,27.8 C273.7,27.2 273.5,26.4 273.3,25.4 C273.1,24.4 272.9,23.4 272.8,22.5 C272.7,21.6 272.6,20.7 272.6,20 L272.6,19.5 L272.6,18.7 L271,18.7 L271,33.2 L271.1,36.3 C271,36.9 270.7,37.3 270.3,37.4 C269.9,37.5 269.6,37.6 269.5,37.6 C269.1,37.6 268.9,37.5 268.8,37.3 C268.7,37.1 268.6,37 268.6,36.8 L268.8,32.2 L268.8,8.8 L268.6,2.6 C268.7,2.5 268.8,2.5 268.8,2.4 C268.8,2.3 269.1,2.5 269.4,2.8 L271,4 L276.3,4 Z M277.3,18.6 L272.8,18.6 C272.9,19 272.9,19.6 273.1,20.2 C273.2,20.8 273.5,21.8 273.9,23.2 C274.4,24.5 274.9,25.8 275.6,27 C275.8,26.3 275.9,25.8 276.1,25.3 C276.3,24.8 276.4,24 276.7,22.7 C277,21.4 277.1,20.5 277.2,19.9 C277.2,19.4 277.3,18.9 277.3,18.6 Z" id="形状"></path>
                <path d="M303.3,6.4 L303.9,5.4 C304.1,5.1 304.2,5 304.3,5 C304.4,5 304.5,5 304.7,5.2 L307.2,7.5 C307.4,7.7 307.5,7.9 307.7,8.2 C307.8,8.4 307.7,8.6 307.2,8.8 L306.1,9.1 C304.3,11.3 302.6,13.2 300.8,15 C301.5,15.5 302.3,16 303.1,16.6 C303.9,17.2 305,17.6 306.2,18 C307.4,18.4 308.3,18.7 308.7,18.7 C309.1,18.7 309.8,18.8 310.7,18.8 L311.7,18.8 C311.7,18.8 311.8,18.8 311.8,18.9 C311.8,19 311.9,19.1 311.9,19.2 C311.9,19.3 311.8,19.4 311.7,19.5 L311.1,20 C310.8,20.2 310.6,20.5 310.3,20.9 C310,21.3 309.9,21.6 309.7,21.9 C309.6,22.2 309.4,22.5 309.4,22.8 C309.3,23.1 309.3,23.3 309.2,23.3 C309.2,23.3 309.1,23.4 309,23.4 C308.7,23.4 307.8,23.1 306.2,22.3 C304.6,21.5 303.2,20.6 302,19.6 C300.8,18.6 299.7,17.5 298.8,16.5 C297.9,17.3 296.9,18 295.9,18.6 L299.2,19.6 C299.5,19.7 299.7,19.9 299.7,20 C299.7,20.1 299.6,20.4 299.4,20.5 L298.7,21.1 C298.6,21.7 298.6,22.2 298.5,22.5 L298.5,22.9 L298.4,23.5 L304,23.5 L304.4,22.6 C304.5,22.3 304.6,22.2 304.7,22.2 C304.8,22.2 305,22.3 305.2,22.5 L307.4,24.3 C307.5,24.4 307.6,24.5 307.7,24.7 C307.8,24.9 307.8,24.9 307.8,25 C307.8,25.1 307.8,25.2 307.7,25.3 C307.6,25.4 307.6,25.5 307.5,25.6 L306.7,26.2 C306.6,27.2 306.4,28.6 306.2,30.3 C306,32 305.6,33.7 305,35.1 C304.4,36.5 303.5,37.5 302.2,37.9 L300.8,38.3 C300.6,38.4 300.5,38.4 300.4,38.4 C300.3,38.4 300.2,38.4 300.2,38.3 C300.2,38.2 300.1,38.2 300.1,38.1 C300.1,38 300,37.8 300,37.4 C299.9,37 299.8,36.6 299.6,36.2 C299.4,35.8 299.2,35.5 298.9,35.3 L297.8,34.6 C297.7,34.5 297.7,34.5 297.6,34.4 C297.6,34.3 297.6,34.3 297.6,34.2 C297.6,34 297.7,34 297.9,34 L299.3,34.2 C300.5,34.4 301.3,34.3 301.8,34.1 C302.3,33.9 302.6,33.4 302.9,32.8 C303.2,32.2 303.4,31.2 303.6,29.8 C303.8,28.4 303.9,27.3 304,26.2 L304,25 L304,24.5 L298.2,24.5 C297.9,26 297.7,27.1 297.5,27.9 C297.3,28.7 296.9,29.8 296.1,31.1 C295.3,32.5 294.1,33.7 292.5,34.8 C290.8,35.9 289.2,36.7 287.7,37.1 L286.5,37.5 C286.4,37.6 286.2,37.6 286.2,37.5 C286.1,37.4 286.1,37.4 286.1,37.2 C286.1,37.1 286.2,37 286.4,36.9 L287.4,36.3 C290.8,34.5 292.9,32.6 293.7,30.6 C294.5,28.6 295,27.1 295.2,26.3 L295.5,24.8 L295.6,24.4 L288.6,24.4 C288.4,24.4 288.3,24.2 288.2,23.8 C288.2,23.4 288.3,23.2 288.6,23.2 L295.8,23.2 C295.8,22.8 295.9,22.6 295.9,22.4 L295.9,21.1 L296,19.6 L296,18.3 C294.4,19.3 292.9,20.2 291.5,20.9 C290.1,21.6 288.7,22.2 287.1,22.6 L286,22.9 C285.7,23 285.5,23 285.5,22.9 C285.5,22.8 285.5,22.7 285.5,22.7 C285.5,22.5 285.6,22.4 285.7,22.3 L287,21.7 C287.9,21.3 289.3,20.4 291.3,19.1 C293.3,17.8 295.3,16.1 297.3,14 C296.5,12.4 296,11.2 295.7,10.5 C295.4,9.8 295.3,9.2 295.2,8.8 L294.8,7.1 C293.7,9.1 292.7,10.6 291.9,11.8 C291.1,13 290.1,14.2 288.9,15.4 L287.9,16.4 C287.7,16.6 287.6,16.6 287.6,16.5 C287.6,16.4 287.5,16.3 287.5,16.2 C287.5,16.1 287.5,16 287.7,15.8 L288.5,14.4 C289,13.5 289.5,12.6 290,11.7 C290.5,10.8 291.2,9.3 291.9,7.4 C292.7,5.5 293.3,3.8 293.7,2.4 L294.1,0.8 C294.2,0.4 294.3,0.2 294.3,0.1 C294.3,0.1 294.3,0.1 294.4,-1.0658141e-14 L294.9,0.3 L297.5,1.8 C297.8,2 297.9,2.1 297.9,2.3 C297.9,2.5 297.8,2.6 297.5,2.8 L296.9,3.1 C296.3,4.2 295.9,5.1 295.6,5.7 L303.3,5.7 L303.3,6.4 Z M302.8,7.5 L295.4,7.5 C295.8,8.6 296.3,9.6 296.7,10.3 C297.1,11 297.7,12 298.5,13.1 C300.4,10.9 301.9,9 302.8,7.5 Z" id="形状"></path>
            </g>
        </g>
    </g>
</svg>