<?xml version="1.0" encoding="UTF-8"?>
<svg width="295px" height="128px" viewBox="0 0 295 128" version="1.1" xmlns="http://www.w3.org/2000/svg" xmlns:xlink="http://www.w3.org/1999/xlink">
    <title>pc-1Sclass</title>
    <g id="Page-1" stroke="none" stroke-width="1" fill="none" fill-rule="evenodd">
        <g id="pc-1Sclass" fill="#FFFFFF" fill-rule="nonzero">
            <rect id="矩形_2_" opacity="0.6" x="1.6" y="77.5" width="36.1" height="1.2"></rect>
            <g id="Group_3_" transform="translate(1.000000, 0.000000)">
                <path d="M12,40.2 C8.9,44.6 5.7,48.2 2.4,50.9 L0.9,52 C0.7,52.2 0.4,52.2 0.4,52.1 C0.3,52 0.3,51.9 0.3,51.7 C0.3,51.6 0.4,51.3 0.5,51.2 L2.2,49.2 C4.3,46.9 5.9,44.5 7.1,42.4 C8.3,40.3 9.4,38.1 10.6,36 C11.7,33.9 12.6,32.2 13.1,30.9 C13.7,29.7 14.5,27.9 15.2,26 C16.1,24 16.6,22.7 16.7,22.1 L17.7,19 C16.7,13.9 16.1,10.7 15.9,9.4 C15.7,8 15.4,7.1 15.4,6.4 C15.3,5.8 15.2,5.2 14.9,4.7 C14.7,4.1 14.5,3.6 14.3,3.2 C14.1,2.7 14.1,2.5 14.1,2.3 L14.1,2.3 L14.1,2.2 C14.1,2.1 14.2,2 14.3,2 C14.4,1.9 14.7,1.9 14.8,1.9 L19,2.5 C19.4,2.6 19.6,2.7 19.7,2.9 C19.8,3 19.8,3.1 19.8,3.3 C19.8,3.4 19.8,3.5 19.7,3.8 C19.6,4 19.6,4.2 19.5,4.3 L18.4,5.8 C18.5,6.9 18.8,8 18.9,9.1 C19,10.1 19.6,12.7 20.5,16.6 C21.4,20.5 22.6,24.5 24.1,28.3 C25.6,32.1 27.6,35.7 30,39.1 C32.4,42.5 35.2,44.9 37.9,46.1 L39,46.6 C39.1,46.7 39.2,46.8 39.2,47.1 C39.2,47.3 39.1,47.5 39,47.6 L38.1,47.8 C37.6,47.9 37.1,48.2 36.6,48.7 C36.1,49.1 35.6,49.6 35.2,50.2 C34.8,50.8 34.6,51.3 34.3,51.7 C34.2,52.2 33.9,52.3 33.8,52.3 C33.3,52.3 32.2,51.3 30.5,49.1 C28.8,46.9 27.4,45 26.6,43.6 C25.6,42.1 24.6,40.1 23.6,37.6 C22.5,35.1 21.8,33.2 21.3,31.7 L19.9,27.4 C17.7,31.6 15.1,35.7 12,40.2 Z" id="Path_7_"></path>
                <path d="M78.3,11.8 L78.3,11.8 L51.5,11.8 C51.5,14 51.5,17.2 51.5,21.3 C51.5,25.4 51.4,29.3 51.1,33.3 C50.9,37.2 50.2,40.6 49.4,43.5 C48.4,46.3 47.2,48.9 45.7,51.3 L44.5,53.1 C43.9,54.1 43.5,54.5 43.3,54.5 C43.2,54.5 43.1,54.5 43.1,54.4 C43.1,54.3 43.1,54.2 43.1,54.2 C43.1,54.1 43.2,53.7 43.5,53.3 C43.7,52.9 43.9,52.6 44,52.3 L44.9,50.2 C45.3,49.2 45.8,48 46.1,46.6 C46.5,45.2 46.8,43.6 47.1,41.8 C47.3,40 47.6,37.9 47.7,35.6 C47.6,33.4 47.6,30.9 47.6,28.1 L47.5,20.7 C47.5,17.9 47.4,16 47.4,14.9 L47,8.4 C47,8.4 47,8.3 47,8.2 C47,8.1 47,8 47.1,8 C47.1,8 47.5,8 47.8,8.2 L51.9,10.3 L74.7,10.3 L76.2,7.8 C76.6,7.2 76.8,6.8 77.1,6.8 C77.2,6.8 77.6,7.2 78.2,7.8 L80.4,10.5 C80.9,11.1 81.1,11.5 81.1,11.6 C81.1,11.7 81,11.8 80.9,11.8 L78.3,11.8 L78.3,11.8 Z M63.4,51.4 L63.4,42.3 L54,42.3 L53.8,42.3 C53.6,42.3 53.4,42.2 53.3,42.1 C53.3,42 53.2,41.7 53.2,41.4 C53.2,41.1 53.3,40.8 53.8,40.8 L63.5,40.8 L63.5,18.5 L63.4,13.3 C63.5,13.2 63.5,13.1 63.6,12.9 L64,13 L67.5,14.1 C68,14.2 68.2,14.5 68.4,14.5 C68.5,14.6 68.5,14.6 68.5,14.7 C68.5,14.7 68.5,14.8 68.5,14.9 C68.5,15 68.3,15.3 67.9,15.8 L67,16.9 L67,40.6 L72.5,40.6 L73.7,38.4 C74.1,37.7 74.3,37.4 74.4,37.4 C74.5,37.4 74.8,37.6 75.3,38.1 L77.5,40.6 C78,41.1 78.2,41.6 78.2,41.8 C78.2,42.2 78.1,42.3 77.7,42.3 L67,42.3 L67,51.4 L75.6,51.4 L77,48.9 C77.5,48 77.7,47.5 77.9,47.5 C78,47.5 78.4,47.9 79,48.6 L81.1,51.2 C81.6,51.9 82,52.3 81.8,52.7 C81.8,52.8 81.6,52.9 81.3,52.9 L49.3,52.9 C49.1,52.9 48.9,52.8 48.8,52.7 C48.7,52.6 48.7,52.3 48.6,52 C48.6,51.6 48.7,51.4 49.2,51.4 L63.4,51.4 L63.4,51.4 L63.4,51.4 Z M57.7,26.5 C59.3,27.6 60.5,28.7 61.4,29.6 C62.1,30.5 62.6,31.4 62.6,32.3 C62.6,33.3 62.5,34.1 62.2,34.9 C62,35.6 61.3,36 60.7,36 C60.3,36 60.1,35.9 59.7,35.5 C59.3,35.3 59.2,34.8 59.1,34.3 C59,33.8 59,33.1 58.9,32.1 C58.8,31.1 58.7,30.3 58.5,29.8 C58.4,29.2 58.1,28.8 58,28.6 L57.4,27.7 C56.8,29.4 56.3,31 55.7,32.6 C55.1,34.2 54.3,35.7 53.5,37.2 L52.5,38.9 C52.1,39.5 51.9,39.8 51.8,39.8 C51.7,39.8 51.7,39.8 51.6,39.7 C51.6,39.6 51.6,39.6 51.5,39.5 C51.5,39.4 51.5,39.3 51.6,39.1 L52,38 L52.7,35.8 C52.9,35.1 53.3,33.6 53.8,31.4 C54.3,29.2 54.7,27 55,24.7 C55.4,22.5 55.5,21 55.6,20.1 L55.6,17.4 C55.6,17.2 55.6,17 55.7,16.9 C55.7,16.9 55.9,16.9 56.2,17 L59.6,18.4 C60.2,18.6 60.5,18.9 60.6,18.9 C60.7,19 60.7,19.1 60.7,19.3 C60.7,19.5 60.6,19.7 60.1,20 L59.4,20.7 L57.7,26.5 Z M59.8,0.9 C59.8,0.7 59.9,0.7 60.3,0.5 C60.3,0.5 60.4,0.5 60.7,0.5 L61.4,0.6 C61.8,0.7 62.8,1.2 64.4,2 C66,2.9 66.7,4.3 66.7,6.6 C66.7,7.1 66.6,7.8 66.2,8.8 C66,9.8 65.2,10.2 64.1,10.2 C63.6,10.2 63.1,10.1 62.7,9.7 C62.3,9.3 62.1,9 62,8.6 C61.9,8.1 61.8,7.4 61.7,6.4 C61.6,5.4 61.5,4.6 61.2,4.1 C60.9,3.6 60.8,3 60.5,2.5 L59.8,1.5 C60,1.2 59.8,1.1 59.8,0.9 Z M75.7,21 L74,27.2 C77,28.2 78.8,29.4 79.4,30.7 C80,32.1 80.4,33 80.4,33.7 C80.4,34.4 80.3,34.9 80,35.5 C79.8,36.1 79.4,36.5 78.9,36.7 C78.4,36.9 77.9,36.9 77.5,36.8 C77,36.6 76.8,36.3 76.6,35.8 C76.5,35.4 76.2,34.6 76,33.3 C75.8,32.1 75.5,31.2 75.3,30.5 C75.1,29.9 74.8,29.4 74.6,29.1 L73.7,28 C73.1,29.7 72.5,31.2 71.7,32.6 C71.1,34 70.6,34.8 70.2,35.4 L68.8,37.6 C68.7,37.7 68.6,38 68.2,38.3 C67.8,38.6 67.7,38.8 67.6,38.8 L67.6,38.8 C67.6,38.8 67.6,38.7 67.6,38.6 C67.6,38.5 67.7,38.2 67.8,37.6 C68,37.1 68.2,36.9 68.2,36.7 L68.9,34.2 C69.3,33 69.6,31.6 70,30.3 C70.4,28.9 70.7,27.1 71.1,24.8 C71.5,22.5 71.7,20.9 71.8,20 L72,17 C72,17 72,16.9 72.1,16.8 C72.2,16.7 72.2,16.7 72.5,16.8 L76.1,18.6 C76.3,18.7 76.6,18.8 76.7,19 C76.8,19.2 76.8,19.2 76.8,19.2 C76.8,19.3 76.8,19.4 76.7,19.6 C76.6,19.8 76.5,19.8 76.3,20 L75.7,21 Z" id="Shape_25_"></path>
                <path d="M91.5,21 C89.4,25.2 87.9,28 87.1,29.4 L86.5,30.4 C86.4,30.6 86.3,30.6 86.1,30.5 C86,30.4 86,30.3 86,30.1 C86,29.9 86,29.9 86.1,29.6 L86.7,28.2 C87.8,25.6 88.9,22 90,17.5 C91.2,12.9 92,9.6 92.3,7.6 C92.7,5.6 92.9,4 93.2,2.7 L93.4,1 L93.6,0.2 C93.6,0.2 93.6,0.1 93.7,0.1 C93.7,0.1 93.9,0.2 94.3,0.3 L98.7,2.9 C98.9,3 99.1,3.1 98.9,3.4 C98.9,3.5 98.8,3.8 98.7,3.9 L97.3,4.9 C96.2,8.2 95.1,11.3 94,14.5 L95.7,15.6 C95.8,15.7 95.9,15.8 96.1,16 C96.2,16 96.2,16.1 96.2,16.1 C96.2,16.1 96.2,16.2 96.1,16.5 C96,16.6 96,16.7 95.9,16.9 L95,17.9 L95,46.9 L95.2,53.1 C95.1,53.3 95.1,53.6 95,53.8 C94.9,54 94.5,54.3 93.8,54.4 C93.1,54.6 92.6,54.8 92.2,54.6 C92,54.6 91.7,54.5 91.6,54.4 C91.5,54.4 91.4,54.3 91.4,53.9 L91.6,46.5 L91.6,25.6 L91.5,21 Z M105.9,30.2 C104.1,35 102.6,38.2 101.6,39.9 C100.6,41.6 99.6,43.4 98.6,45 L97.6,46.6 C97.4,47 97.2,47 97.1,46.8 C97,46.7 97,46.6 97,46.4 C97,46.3 97,46.2 97.1,45.9 L97.8,44.1 C98,43.4 98.5,42 99.2,40 C99.9,38 100.4,36.1 100.8,34 C101.3,31.9 101.5,30.4 101.7,29.4 L102.2,26.4 L102.3,25.7 C102.3,25.7 102.5,25.7 102.8,25.8 L107,28.4 C107.2,28.6 107.4,28.8 107.4,29 C107.4,29.2 107.3,29.4 107,29.5 L105.9,30.2 Z M118,14.9 L104.7,14.9 C104.6,15.1 104.5,15.4 104.5,15.5 L102.9,19.3 C101.9,21.6 100.7,23.9 99.6,26 L98.6,27.7 C98.4,28.1 98.2,28.1 98.2,27.9 C98.1,27.8 98.1,27.7 98.1,27.5 C98.1,27.4 98.1,27.4 98.2,27.1 L98.9,24.9 C100.6,19.4 101.9,14.8 102.5,10.9 C103.1,7.1 103.5,4.7 103.6,3.9 L103.8,2.1 L103.6,1.2 L103.7,1.1 C103.7,1.1 104.1,1.2 104.6,1.5 L108.7,3.7 C108.8,3.8 108.9,3.9 109.1,3.9 C109.2,4 109.2,4.1 109.2,4.3 C109.2,4.5 109.1,4.5 109,4.7 L107.9,5.6 C107,8.4 106.3,11 105.4,13.4 L118.1,13.4 L119.3,11.4 C119.4,11.3 119.5,11.2 119.5,11.2 C119.6,11.2 119.7,11.3 119.9,11.4 L123.6,15.8 C123.8,16.2 124.1,16.5 124,16.8 C124,17 123.9,17.3 123.8,17.5 C123.7,17.6 123.2,17.7 122.6,17.7 C122,17.7 121.2,18.1 120.4,18.6 C119.5,19.2 118.8,20.3 117.9,21.9 L117,23.5 C116.8,23.9 116.6,24 116.5,23.9 C116.4,23.8 116.4,23.7 116.4,23.5 C116.4,23.4 116.4,23.4 116.4,23.3 C116.4,23.2 116.4,23.2 116.4,23.1 L116.9,21.3 C116.8,20.6 117.3,18.5 118,14.9 Z M112.5,21.9 L112.5,49.8 C112.5,50.3 112.4,50.9 112.3,51.6 C112.1,52.3 111.6,52.8 110.7,53.2 C109.8,53.6 109.2,53.8 109,53.8 L108.4,53.9 C108.2,53.9 107.9,54 107.9,53.9 C107.8,53.9 107.8,53.8 107.8,53.5 L107.4,52.1 C107.2,51.5 106.9,50.9 106.4,50.3 C105.9,49.7 105.4,49.3 104.9,49.1 L103.3,48.2 C103.1,48.1 103.1,48 103.1,47.7 C103.1,47.6 103.1,47.5 103.2,47.3 C103.3,47.2 103.3,47.2 103.4,47.2 L105,47.4 C106.5,47.6 107.5,47.8 107.8,47.6 C108.3,47.6 108.7,47.5 108.9,47.1 C109.1,46.9 109.3,46.5 109.3,46.1 L109.3,24.4 L108.7,17.6 C108.8,17.6 108.8,17.5 108.9,17.5 C108.9,17.5 109.1,17.5 109.5,17.6 L113.8,19.2 C114,19.3 114.2,19.4 114.2,19.7 C114.2,19.9 114.1,20.1 114,20.3 L112.5,21.9 Z M114.5,28.3 C114.6,28.3 114.6,28.2 114.6,28.2 C114.6,28.2 115,28.4 115.6,28.8 C116.2,29.2 117.2,30.2 118.8,31.6 C120.3,33.1 121.5,34.9 122.4,37 C123.3,39.1 123.6,40.9 123.6,42.5 C123.6,43.6 123.4,44.6 122.9,45.3 C122.5,46 121.9,46.4 121.3,46.4 C120.6,46.4 120.1,46 119.7,45.3 C119.3,44.6 119.1,43.2 118.8,41.4 C118.6,39.4 118.3,37.8 117.9,36.2 C117.5,34.7 117.2,33.6 116.8,32.9 C116.6,32.3 116.1,31.4 115.6,30.6 C115.1,29.7 114.7,29.2 114.6,29 C114.5,28.9 114.4,28.6 114.4,28.5 C114.4,28.6 114.4,28.5 114.5,28.3 Z" id="Shape_24_"></path>
                <path d="M141,43.8 L133.7,43.8 L133.7,49.6 C133.7,50 133.6,50.5 133.3,51 C133,51.5 132.6,51.7 131.8,51.7 C131,51.7 130.7,51.6 130.6,51.5 C130.5,51.3 130.4,51 130.2,50.8 L130.4,43.4 L130.4,19.8 L130.2,10.1 C130.3,10.1 130.3,10 130.4,10 C130.5,10 130.8,10.1 131.3,10.5 L133.8,12.2 L134.9,12.2 C135,10.6 135.1,9.1 135.3,8 C135.4,6.9 135.5,5.7 135.5,4.3 L135.6,1.2 L135.7,0.1 L135.8,-3.60822483e-16 C135.8,-3.60822483e-16 136,-3.60822483e-16 136.4,0.2 L140.1,2.2 C140.5,2.3 140.6,2.6 140.7,2.6 C140.8,2.7 140.8,2.8 140.8,3 C140.8,3.1 140.6,3.4 140.2,3.6 L139.2,4.1 C138.8,5.2 138.5,5.9 138.3,6.4 L137.1,9.9 L136.2,12.2 L140.4,12.2 L141.5,10.1 C141.6,9.9 141.7,9.7 141.9,9.7 C142.1,9.7 142.1,9.8 142.5,10.1 L145.1,12.6 C145.2,12.7 145.3,12.8 145.5,13 C145.5,13.1 145.6,13.2 145.6,13.2 C145.6,13.3 145.5,13.4 145.4,13.7 L144.5,14.8 L144.5,43.1 L144.6,47.7 C144.5,48.3 144.1,48.9 143.5,49.2 C142.9,49.6 142.4,49.7 141.9,49.7 C141.4,49.7 141.2,49.6 141,49.3 C140.9,49.1 140.9,48.7 140.9,48.2 L141,43.8 L141,43.8 Z M141,26.4 L141,13.8 L133.7,13.8 L133.7,26.4 L141,26.4 Z M141,42.2 L141,28 L133.7,28 L133.7,42.2 L141,42.2 Z M150.7,14.4 C150.3,15.4 149.8,16.9 149.1,19 C148.4,21.1 147.9,22.5 147.5,23.1 L146.6,25.2 L145.9,27 C145.8,27.4 145.7,27.5 145.4,27.5 C145.3,27.5 145.3,27.5 145.3,27.5 C145.3,27.5 145.3,27.4 145.2,27.4 C145.2,27.3 145.2,27.2 145.3,26.8 L145.8,24.6 C146.2,23.1 146.4,22.1 146.4,21.8 C146.5,21.4 146.8,20.2 147.1,18.1 C147.5,16 147.8,14.5 148,13.5 L148.7,8.6 C149.1,6.6 149.2,5.4 149.3,4.9 L149.7,1.7 C149.7,1.1 149.8,0.7 149.8,0.7 C149.8,0.7 149.9,0.7 150.2,0.8 L154.6,3 C154.8,3.1 155.1,3.4 155.1,3.6 C155.1,3.8 155,4.1 154.6,4.2 L153.6,4.9 C153.2,5.9 153.1,6.7 152.9,7.2 L151.9,10.5 C151.7,11.4 151.4,12.2 151,13 L160.2,13 L160.9,11.5 C161.1,11 161.3,10.8 161.4,10.8 C161.5,10.8 161.6,10.9 162,11.2 L165,13.8 C165.1,13.9 165.2,14 165.2,14.2 C165.2,14.4 165.3,14.4 165.3,14.4 C165.3,14.5 165.3,14.5 165.3,14.6 C165.3,14.7 165.2,14.8 164.9,15 L164,16.1 C164,17.6 164,18.7 164,19.4 C164,20.1 164,20.6 164,20.9 C164,23.1 164,26 163.9,29.3 C163.8,32.8 163.8,35.7 163.7,38.4 C163.6,41.1 163.3,43.6 163,45.8 C162.7,48 162,49.7 161.2,51 C160.3,52.1 159.2,53 157.9,53.6 C156.5,54.2 155.7,54.5 155.3,54.5 C155.2,54.5 155.1,54.5 155.1,54.5 C155.1,54.5 155,54.4 155,54.3 C155,54.2 154.9,53.9 154.9,53.4 C154.9,52.9 154.7,52.3 154.4,51.3 C154.2,50.4 153.7,49.7 152.9,49.1 L151.3,48 C151.1,47.9 150.9,47.6 151.1,47.4 C151.1,47.2 151.3,47 151.6,47.2 L153.7,47.8 C154.7,48 155.5,48.2 156.2,48.2 C157.4,48.2 158.3,47.7 158.9,46.8 C159.4,45.8 159.8,44.6 160,42.9 C160.2,41.3 160.4,39.3 160.5,37.2 C160.6,35.1 160.6,32.6 160.7,29.9 C160.7,27.2 160.8,24.4 160.8,21.6 C160.8,18.8 160.8,17.3 160.8,17 L160.8,14.8 L150.7,14.8 L150.7,14.4 L150.7,14.4 Z M149.5,26.7 L148.6,25.3 C148.5,25.1 148.4,24.9 148.4,24.8 C148.4,24.7 148.5,24.6 148.8,24.6 C149.3,24.6 150.2,25.1 151.5,25.8 C152.9,26.7 153.8,27.6 154.3,28.9 C154.9,30.1 155.2,31.2 155.2,32.4 C155.2,33.5 155,34.4 154.5,35.1 C154,35.8 153.4,36.2 152.8,36.2 C152.1,36.2 151.6,35.8 151.3,35.2 C151.1,34.6 150.9,33.8 150.8,33 L150.8,31.6 C150.9,29.7 150.4,28 149.5,26.7 Z" id="Shape_23_"></path>
                <path d="M179.9,6.9 C179.2,8.5 178.4,10.1 177.8,11.5 C177.2,12.9 176.6,14 176.1,15 C175.6,16 174.7,17.5 173.6,19.2 C172.5,21 171.9,22 171.6,22.4 L170.6,23.8 C170.5,23.9 170.4,24 170.2,24 C170,24 170.1,24 170,23.9 C169.9,23.8 170,23.8 170,23.7 C170,23.6 170,23.5 170.1,23.2 L170.6,22.2 L172,18.9 C173.2,15.8 174.3,12.7 175.2,9.8 C176.1,6.9 176.6,4.7 176.8,3.8 L177.4,1.3 L177.5,0.4 C177.5,0.4 177.7,0.5 178.1,0.6 L181.7,2.7 C181.9,2.8 182.1,2.9 182.1,3.1 C182.1,3.2 182.2,3.3 182.2,3.5 C182.2,3.6 182.1,3.7 181.7,4 L180.8,4.5 L180.1,6 C182.4,6.6 184.2,7.4 185.3,8.1 C186.3,8.8 187,9.6 187.4,10.4 C187.8,11.1 187.9,11.9 187.9,12.5 C187.9,12.7 187.9,13.1 187.8,13.5 C187.7,13.9 187.7,14.1 187.6,14.5 C187.5,14.7 187.1,15.1 186.6,15.5 C186.1,15.9 185.5,15.6 184.9,15 C184.7,14.8 184.4,14.3 184.2,13.6 L183.3,11.1 C182.9,10.2 182.6,9.5 182.1,8.9 C181.5,8.1 180.9,7.6 179.9,6.9 Z M181.6,19.8 L181.4,20.4 L181.4,26.4 L184.6,26.4 L186,24.1 C186.1,23.9 186.2,23.6 186.4,23.6 C186.6,23.6 186.6,23.7 187,24.1 L189.2,26.8 C189.4,27.2 189.7,27.4 189.7,27.7 C189.7,27.8 189.6,27.9 189.6,28.1 C189.5,28.2 189.4,28.2 189.4,28.2 L187.3,28.2 L187.3,28.2 L181.5,28.2 L181.5,34.5 L183.6,34.5 L184.6,32.8 C184.7,32.6 184.8,32.3 185,32.4 C185.1,32.4 185.2,32.5 185.6,32.8 L187.9,34.6 C188,34.7 188.1,34.8 188.1,35 C188.2,35.1 188.2,35.1 188.2,35.2 C188.2,35.2 188.1,35.3 188.1,35.6 C188,35.8 188,35.8 187.9,36 L187.3,36.7 L187.3,46.7 L187.4,50.3 C187.3,51 186.9,51.4 186.4,51.8 C185.9,52 185.4,52.2 185.2,52.2 C184.8,52.2 184.6,52.1 184.5,51.8 C184.4,51.6 184.3,51.3 184.3,51.2 L184.3,48.4 L177.3,48.4 L177.3,51 C177.3,51.4 177.3,51.6 177.2,51.7 C177.1,51.9 177,52.2 176.5,52.4 C176.1,52.8 175.6,52.9 175,52.8 C174.6,52.8 174.4,52.7 174.3,52.4 C174.2,52.2 174.1,51.9 174.1,51.5 L174.2,47.2 L174.2,38.1 L174,32.7 L174.1,32.6 C174.2,32.6 174.5,32.7 175,33.1 L177,34.3 L178.8,34.3 L178.8,27.8 L172.1,27.8 L171.9,27.8 C171.8,27.8 171.7,27.7 171.7,27.7 L171.6,27.3 C171.6,26.7 171.8,26.3 172.1,26.3 L178.8,26.3 L178.8,19.8 L174.6,19.8 C174.2,19.8 174.1,19.6 174.1,18.9 C174.1,18.4 174.2,18 174.6,18 L183.1,18 L184.1,16.4 C184.3,16 184.5,15.8 184.6,15.8 C184.7,15.8 184.8,15.9 185.2,16.3 L187.4,18.6 C187.6,18.8 187.6,19.1 187.6,19.3 C187.6,19.5 187.5,19.7 187.2,19.7 L184.6,19.7 L184.6,19.7 L181.6,19.7 L181.6,19.8 L181.6,19.8 Z M183.7,36.1 L176.7,36.1 L176.7,46.7 L183.7,46.7 L183.7,36.1 Z M199.7,6.7 L187.7,6.7 C187.3,6.7 187.2,6.5 187.1,6 C187,5.5 187.2,5.3 187.7,5 L187.8,5 L200,5 L201,3.2 C201.1,3 201.4,2.7 201.5,2.7 C201.6,2.7 201.9,2.8 202.1,3.2 L205.1,6.5 C205.7,7.1 206,7.7 206,8.1 C206,8.3 205.9,8.6 205.8,8.7 C205.7,8.8 205.2,8.9 204.6,8.9 C204,9 203.1,9.4 202.4,10.1 C201.5,10.8 200.1,12.3 198.1,14.4 C198.5,15 198.8,15.5 199,16 C199.2,16.5 199.4,17.1 199.4,17.8 C199.4,18.3 199.3,18.9 199,19.5 C198.7,20.1 198.5,20.6 198,20.9 C197.5,21.1 197.1,21.4 196.8,21.3 C196.6,21.3 196.3,21.2 195.9,21.1 C195.5,21 195.4,20.6 195.3,20.1 C195.2,19.6 194.9,18.9 194.7,17.5 C194.5,16.3 194.1,15.2 193.6,14.3 C193.1,13.4 192.7,12.8 192.4,12.5 L191.4,11.8 C191.3,11.7 191.2,11.6 191.2,11.4 C191.2,11.3 191.2,11.2 191.2,11.2 C191.2,11.1 191.3,11 191.6,11 C191.8,11 192.1,11.1 192.6,11.2 L194.2,11.8 C194.9,12.2 196,12.8 197.3,13.6 C198.5,10.1 199.5,7.8 199.7,6.7 Z M203.5,23.2 L199.4,23.2 L198.9,24.1 L198.9,50.8 C198.9,51.4 198.5,52.2 197.9,52.8 C197.2,53.4 196.4,53.9 195.7,54.3 C194.8,54.5 194.3,54.8 194.1,54.7 C194,54.7 194,54.7 194,54.7 C194,54.7 194,54.6 193.9,54.6 C193.9,54.5 193.8,54 193.8,52.9 C193.7,51.8 193.1,50.9 191.8,50.3 L190.3,49.4 C190.2,49.4 190.2,49.3 190.1,49.2 C190.1,49.1 190,49 190,48.7 C190,48.5 190.1,48.5 190.5,48.5 L192.1,48.7 C192.7,48.8 193.5,48.9 194.2,48.9 C194.8,48.9 195.2,48.8 195.3,48.5 C195.4,48.3 195.5,47.9 195.5,47.3 L195.5,23.3 L188.2,23.3 C187.8,23.3 187.7,23.1 187.6,22.4 C187.5,21.9 187.7,21.5 188.2,21.5 L203.6,21.5 L204.6,19.8 C204.7,19.6 204.8,19.4 205,19.4 C205.1,19.4 205.4,19.6 205.7,20 L209,23.5 C209.1,23.6 209.2,23.9 209.4,24.1 C209.5,24.3 209.5,24.5 209.5,24.7 C209.5,25.2 209.4,25.4 209.1,25.6 C208.9,25.7 208.4,25.8 207.6,26 C206.9,26.1 206.2,26.4 205.6,26.7 C205,27.1 204.4,27.8 203.8,28.8 L202.3,31.1 C202.2,31.2 202.1,31.3 201.9,31.3 C201.8,31.3 201.7,31.3 201.7,31.2 C201.7,31.1 201.7,31 201.7,31 C201.7,31 201.7,30.9 201.7,30.8 L203.5,23.2 Z" id="Shape_22_"></path>
                <path d="M219.8,26 L213.5,26 C213.1,26 213,25.8 213,25.3 C213,24.8 213.2,24.6 213.7,24.4 L213.9,24.4 L219.4,24.4 L220.3,23 C220.7,22.5 220.9,22.3 221,22.3 C221.1,22.3 221.4,22.4 221.9,22.9 L223.5,24.5 C223.9,24.9 224.1,25.1 224.2,25.4 C224.3,25.5 224.3,25.6 224.3,25.9 C224.3,26 224.2,26.3 223.8,26.8 L222.9,27.9 L222.9,45.8 C224.7,47 226.4,48 227.8,48.6 C229.3,49.2 232.1,49.6 236.4,49.6 C240.8,49.6 245.1,49.1 249.5,48 L250.9,47.6 C251.3,47.5 251.5,47.6 251.5,47.7 C251.5,47.9 251.4,48.1 251.3,48.3 L250.3,49.5 C249.9,50 249.7,50.5 249.4,51 C249.2,51.6 249,52.1 249,52.7 C249,53.3 248.9,53.6 248.8,53.7 C248.7,53.8 248.7,53.9 248.6,53.9 C248.5,53.9 247.5,54 245.6,54.1 C243.8,54.2 241.7,54.2 239.2,54.2 C238.2,54.2 236.5,54.2 234.1,54.1 C231.8,54 229.9,53.5 228.3,52.7 C226.8,52 225.6,51.1 224.7,50.2 L222.4,47.9 C221.7,47.3 220.9,46.9 220.3,46.9 C219.7,46.9 218.9,47.3 218.1,48.3 C217.2,49.2 216.6,50 216.1,50.9 L215,52.9 C214.9,53.3 214.8,53.4 214.6,53.4 C214.6,53.4 214.5,53.4 214.4,53 L213,48.1 C212.9,47.9 212.9,47.7 212.9,47.6 C212.9,47.5 212.9,47.5 212.9,47.5 C212.9,47.5 213,47.4 213.3,47.3 L215.3,46.3 L217.8,45.3 L219.4,44.6 L219.4,26 L219.8,26 Z M216.2,3.9 C216,3.7 216,3.4 216,3.3 C216,3.2 216.1,3.1 216.5,2.9 C216.6,2.9 216.6,2.9 216.7,2.9 C216.8,2.9 217.1,3 217.6,3.1 C218.1,3.2 218.8,3.6 219.9,4.1 C221,4.6 221.9,5.5 222.4,6.6 C222.9,7.7 223.1,8.7 223.1,9.4 C223.1,10.3 222.9,11 222.4,11.7 C221.9,12.4 221.3,12.8 220.6,12.8 C220.1,12.8 219.7,12.7 219.4,12.3 C219,11.9 218.8,11.6 218.7,11.2 C218.6,10.8 218.5,10.1 218.5,9 C218.4,7.9 218.3,7 218,6.2 C217.3,5.7 216.8,4.9 216.2,3.9 Z M231,41.3 L231,45.5 C231,46.1 230.6,46.6 230,46.7 C229.4,46.9 228.9,46.9 228.5,46.9 C228.3,46.9 228,46.8 227.9,46.7 C227.8,46.6 227.7,46.3 227.5,46 L227.6,40.1 L227.6,31.1 L227.5,25.9 C227.6,25.7 227.6,25.5 227.7,25.5 C227.8,25.5 227.9,25.5 228.1,25.6 L231.2,27.3 L234.5,27.3 L234.5,18.6 L222.9,18.6 L222.7,18.6 C222.5,18.6 222.3,18.5 222.2,18.5 C222.1,18.4 222.1,18.1 222.1,17.8 C222.1,17.5 222.2,17.2 222.7,17.2 L234.6,17.2 L234.6,9.2 C232.4,9.6 230.5,9.8 229.2,9.9 C227.7,10 227,10.1 226.9,10.1 L225.1,10.3 C224.4,10.4 224,10.3 224,9.8 C224,9.7 224.1,9.6 224.4,9.4 L225.4,9.2 L227.1,8.7 C230.6,7.6 233.6,6.5 236.2,5.1 C238.8,3.7 240.5,2.9 241,2.4 L242.8,1 C242.9,0.9 243,0.9 243.2,0.9 C243.3,0.9 243.6,1.1 243.9,1.6 L246.6,4.9 C247,5.4 247.1,5.6 247.1,5.8 C247.1,5.9 247.1,6 247,6.2 L243.4,6.9 L237.5,8.5 L238.6,9.1 C238.7,9.2 238.8,9.2 239,9.3 C239.1,9.4 239.1,9.5 239.1,9.5 C239.1,9.5 239,9.7 238.9,9.9 C238.8,10.1 238.7,10.3 238.7,10.3 L238,11.2 L238,16.9 L244.9,16.9 L246.3,14.6 C246.8,13.7 247,13.4 247.2,13.4 C247.3,13.4 247.6,13.6 248.1,14.1 L250.4,17.1 C250.8,17.6 251,18 251,18.2 C251,18.4 250.9,18.7 250.5,18.7 L238.3,18.7 L238.3,27.4 L242.2,27.4 L243.2,25.8 C243.4,25.3 243.7,25.2 243.7,25.2 C243.8,25.2 244.1,25.3 244.4,25.8 L246.2,27.5 C246.6,27.9 246.8,28.1 246.9,28.2 C247,28.3 247,28.4 247,28.6 C247,28.7 246.9,29 246.5,29.5 L245.6,30.6 L245.6,38.9 L245.7,44.4 C245.3,45.4 244.5,45.9 243.4,45.8 C242.8,45.8 242.5,45.7 242.4,45.4 C242.3,45.2 242.3,44.9 242.3,44.5 L242.3,41.4 L231.1,41.4 L231.1,41.3 L231,41.3 Z M231,29.1 L231,39.7 L242.3,39.7 L242.3,29.1 L231,29.1 Z" id="Shape_21_"></path>
                <path d="M285.2,4.6 L287,1.5 C287.2,1.1 287.4,0.9 287.5,0.9 C287.5,0.9 287.6,1.1 288,1.6 L291,5.5 C291.1,5.6 291.1,5.7 291.1,5.9 L291.1,6 C291.1,6.1 291.1,6.1 291,6.2 C291,6.3 290.9,6.3 290.5,6.3 L262.3,6.3 L262.3,49.1 L286.7,49.1 L288.9,45.4 C289,45.2 289.3,45 289.3,45 C289.4,45 289.5,45.1 289.8,45.4 L293,49.8 C293.1,49.9 293.2,50.2 293.2,50.3 C293.2,50.5 293.1,50.5 292.8,50.5 L262.4,50.5 L261.2,52.6 C261,53.1 260.7,53.3 260.7,53.3 C260.7,53.3 260.6,53.2 260.3,52.9 L257.3,49.9 C257.2,49.8 257.2,49.8 257.1,49.7 C257.1,49.6 257.1,49.5 257.1,49.3 C257.1,49.2 257.2,49.1 257.3,48.8 L258.4,47.4 L258.4,9.9 L258.4,1.4 L258.5,1.3 C258.5,1.3 258.9,1.5 259.4,1.9 L262.5,4.6 L285.2,4.6 L285.2,4.6 Z M279.2,18.5 C279.7,17 280.2,15.4 280.6,13.9 L281.3,10.9 L281.5,10 L281.6,9.9 C281.6,9.9 281.7,10 282.1,10.1 L286.3,13.7 C286.5,13.9 286.7,14.1 286.5,14.3 C286.5,14.5 286.3,14.7 286,14.8 L285,15.3 C283.4,19.1 281.8,22.9 280.2,26.6 C281.1,27.8 282.5,29.8 284.6,32.6 C286.6,35.4 287.4,38 287.2,40.5 C287,43 286.3,44.1 285.4,44.1 C284.5,44 283.9,43.6 283.6,43 C283.4,42.3 282.7,40.8 281.9,38.4 C281.1,36 279.8,33.5 278.2,30.8 C277.3,32.2 276.1,34.3 274.4,37 C272.7,39.7 270.1,42.4 266.6,45 L265.5,45.9 C265.1,46.1 265,46.1 265,46 C265,45.9 265,45.8 265,45.6 C265,45.5 265.1,45.4 265.2,45.2 L266.2,44.2 C269.4,41 272.1,36.7 274.3,31.5 L276.1,27.2 C275.1,25.7 274.4,24.6 273.8,23.6 C273.2,22.6 272.4,21.6 271.7,20.5 C271,19.4 270.2,18.5 269.6,17.8 C269,17.1 268.5,16.6 268.4,16.3 C268.3,16.1 268,15.9 267.9,15.7 C267.8,15.6 267.7,15.3 267.7,15.3 C267.7,15.2 267.7,15.1 267.6,14.9 C267.6,14.8 267.7,14.7 267.8,14.7 C268,14.7 269.3,15.8 271.9,18 C274.4,20.2 275.7,21.5 275.8,21.6 L277.8,23.7 C278.1,21.7 278.7,20 279.2,18.5 Z" id="Shape_20_"></path>
            </g>
            <g id="Group" transform="translate(0.000000, 98.000000)">
                <path d="M6.9,10.8 C5.9,12 5.1,13.1 4.2,14 C3.3,14.9 2.7,15.5 2.2,15.8 C1.7,16.2 1.4,16.4 1.3,16.4 L0.8,16.8 C0.8,16.9 0.8,16.9 0.6,16.9 C0.4,16.9 0.5,16.9 0.5,16.8 L0.5,16.7 C0.5,16.6 0.5,16.6 0.6,16.5 L1,16.1 C1.9,15.1 2.6,13.9 3.5,12.7 C4.4,11.5 5.3,9.8 6.3,7.7 C7.3,5.8 7.9,4.1 8.4,2.9 L8.6,2.3 L8.8,1.7 L8.8,1.6 L9.3,2 L11.7,3.4 C11.8,3.5 11.8,3.5 11.9,3.6 C11.9,3.7 11.9,3.7 11.9,3.8 C11.9,3.9 11.8,4 11.7,4 L10.9,4.4 L10.8,4.6 C11.6,6.5 12.4,7.9 13.2,8.9 C14,9.8 14.6,10.5 15.3,10.9 C15.8,11.4 16.6,11.9 17.2,12.3 C17.8,12.7 18.6,13.1 19.2,13.3 L19.8,13.5 L20.3,13.7 C20.4,13.7 20.5,13.8 20.5,13.8 L20.5,13.9 C20.5,14 20.5,14.1 20.4,14.1 L20.2,14.3 C19.8,14.5 19.7,14.7 19.4,14.8 C19.1,15 19,15.2 18.9,15.4 C18.8,15.6 18.5,15.9 18.4,16.2 C18.3,16.4 18.3,16.6 18.3,16.6 C18.3,16.7 18.2,16.7 18.2,16.7 C18,16.7 17.3,16.3 16.2,15.3 C15.1,14.3 14.1,13.4 13.4,12.1 C12.8,11 12,9.8 11.6,8.8 C11.1,7.7 10.8,6.8 10.6,5.9 L10.4,4.8 C9.1,7.7 7.8,9.6 6.9,10.8 Z M11.6,15.5 C11.6,15.6 11.5,15.6 11.5,15.9 C11.5,16.2 11.3,16.1 11.1,16.3 L11.1,21 L13.2,21 L14,19.6 C14.1,19.2 14.2,19.2 14.4,19.2 C14.4,19.2 14.6,19.3 14.9,19.6 L16.3,21.2 C16.4,21.4 16.5,21.6 16.5,21.6 C16.5,21.7 16.4,21.8 16.1,21.8 L11.1,21.8 L11.1,27.4 L15.8,27.4 L16.9,25.8 L17.1,25.6 C17.2,25.4 17.3,25.4 17.3,25.4 C17.3,25.4 17.5,25.6 17.8,25.9 L19.3,27.7 C19.4,27.8 19.5,27.9 19.5,28.1 C19.5,28.2 19.5,28.2 19.5,28.3 C19.5,28.4 19.4,28.4 19.1,28.4 L18,28.4 L1.5,28.4 C1.3,28.4 1.3,28.3 1.3,28 C1.3,27.6 1.4,27.6 1.5,27.6 L9,27.6 L9,22 L4.4,22 L4.3,22 C4.2,22 4.2,21.9 4.2,21.9 C4.2,21.9 4.1,21.7 4.2,21.5 C4.2,21.3 4.3,21.1 4.4,21.1 L9.1,21.1 L9.1,15.6 L4.4,15.6 C4.3,15.6 4.2,15.5 4.2,15.2 C4.2,14.8 4.3,14.8 4.4,14.8 L12.1,14.8 L12.9,13.5 C13.1,13.1 13.3,13.1 13.3,13.1 C13.3,13.1 13.4,13.2 13.8,13.5 L15.2,15 C15.3,15.2 15.4,15.4 15.4,15.4 C15.4,15.5 15.3,15.6 15,15.6 L13.6,15.6 L11.6,15.5 L11.6,15.5 Z" id="Shape_8_"></path>
                <path d="M30.6,5.4 L31.1,4.3 C31.3,3.9 31.5,3.7 31.5,3.7 C31.5,3.7 31.7,3.9 32,4.2 L33,5.5 C33.2,5.7 33.4,5.9 33.4,6 C33.4,6.1 33.4,6.1 33.3,6.2 C33.3,6.2 33.2,6.3 33.1,6.3 L31.2,6.3 L31.2,6.3 L30.2,6.3 L31.8,7.5 C31.9,7.6 32,7.7 32,7.7 C32,7.7 32,7.8 32,7.9 C32,8 31.9,8 31.8,8.1 L31.3,8.5 C30.7,10 30.2,11.2 29.8,11.9 L31,11.9 L31.5,10.8 C31.7,10.4 31.7,10.3 31.9,10.3 L32,10.3 C32,10.3 32.1,10.4 32.4,10.7 L33.3,11.9 C33.5,12.3 33.7,12.4 33.7,12.4 C33.7,12.5 33.7,12.5 33.6,12.6 C33.5,12.7 33.5,12.7 33.4,12.7 L29.9,12.7 C29.9,12.8 29.8,12.8 29.8,12.9 C29.8,12.9 29.7,13 29.6,13.1 L29.6,16.4 L30.6,16.4 L31.2,15.2 C31.3,15 31.4,14.8 31.4,14.8 C31.4,14.8 31.6,14.9 31.9,15.2 L33,16.7 C33.1,16.9 33.1,17.1 33.1,17.1 C33.1,17.2 33.1,17.2 33,17.3 L32.9,17.4 L29.5,17.4 L29.5,25.7 C29.5,26.1 29.4,26.5 29.3,26.8 C29.2,27.2 28.9,27.2 28.8,27.3 C28.6,27.4 28.3,27.5 27.9,27.7 C27.5,27.9 27.4,27.9 27.1,27.9 L27,27.9 L27,27.8 C27,27.7 27,27.6 27,27.4 C27,27.2 27,27 26.9,26.6 C26.8,26.2 26.5,26 26.3,25.7 L25.8,25.3 C25.7,25.2 25.6,25.1 25.6,24.9 C25.6,24.8 25.7,24.7 25.8,24.7 L26.4,24.8 C26.5,24.8 26.8,24.9 26.9,24.9 C27,24.9 27.1,24.9 27.1,24.9 L27.5,24.9 C27.7,24.9 28,24.8 28,24.5 L28,17.1 L23.7,17.1 L23.6,17 C23.5,16.9 23.4,16.6 23.4,16.5 C23.4,16.3 23.5,16.1 23.8,16.1 L27.8,16.1 L27.8,12.8 L23.5,12.8 L23.4,12.8 C23.3,12.8 23.3,12.7 23.3,12.7 C23.3,12.7 23.2,12.5 23.2,12.3 C23.2,12 23.3,11.9 23.6,11.9 L29.1,11.9 C29.2,11.1 29.5,10.3 29.6,9.2 C29.8,8.1 30,7.4 30,6.9 L30.1,6 L23.9,6 C23.7,6 23.7,5.9 23.5,5.6 C23.5,5.2 23.6,5.2 23.9,5.2 L30.6,5.4 L30.6,5.4 Z M26.3,20.2 C25.9,21.1 25.8,21.7 25.5,22 C25.4,22.4 25,23 24.5,23.9 C24,24.9 23.7,25.4 23.5,25.7 L23,26.3 C22.9,26.4 22.9,26.5 22.8,26.5 C22.8,26.5 22.8,26.5 22.7,26.5 L22.7,26.4 C22.7,26.3 22.7,26.2 22.8,26 L23,25.4 C23,25.3 23.1,25 23.4,24.4 C23.5,23.9 23.6,23.4 23.8,23.3 C23.8,23.1 23.9,22.7 24.2,21.8 C24.4,20.9 24.6,20.4 24.6,20 L24.7,19 L24.8,18.2 C24.8,18.2 24.8,18.1 24.9,18.1 L25.3,18.3 L26.8,19.3 C26.9,19.4 27,19.5 27,19.7 L27,19.8 C27,19.9 26.9,19.9 26.9,19.9 L26.3,20.2 Z M25.1,7.9 L24.9,7.4 L24.9,7.3 C24.9,7.2 24.9,7.2 24.9,7.2 C24.9,7.1 25,7.1 25,7.1 C25.1,7.1 25.5,7.5 26.1,8.1 C26.7,8.7 27.1,9.5 27.1,10.5 C27.1,10.9 27,11.3 26.7,11.6 C26.5,12 26.2,12.1 25.9,12.1 C25.4,12.1 25.3,11.9 25.3,11.6 C25.3,11.2 25.2,10.8 25.2,10.5 C25.2,10.1 25.2,10 25.2,9.7 C25.4,8.8 25.3,8.3 25.1,7.9 Z M26.3,1.4 L26.1,1 C26.1,1 26.1,0.9 26,0.9 L26,0.8 C26,0.7 26.1,0.7 26.1,0.7 C26.2,0.7 26.5,0.8 26.7,0.9 C27.1,1 27.5,1.3 28.1,1.5 C28.6,1.9 28.9,2.1 29,2.7 C29.1,3.2 29.1,3.6 29.1,3.6 C29.1,3.7 29.1,3.8 29.1,4 C29,4.2 28.9,4.5 28.7,4.9 C28.5,5.3 28.2,5.3 27.9,5.3 C27.6,5.3 27.4,5.2 27.1,4.9 C27,4.7 26.9,4.4 26.9,4 L26.8,3 C26.8,2.8 26.7,2.6 26.7,2.4 C26.6,2.1 26.5,1.9 26.3,1.4 Z M39.7,11.5 L40.2,10.4 C40.4,10 40.6,9.8 40.6,9.8 L40.7,9.8 C40.7,9.8 40.9,10 41.2,10.3 L42.3,11.7 C42.4,11.8 42.4,11.9 42.5,12.1 L42.5,12.2 C42.5,12.4 42.4,12.4 42.3,12.4 L39.9,12.4 C39.8,12.6 39.8,12.8 39.7,12.8 C39.7,12.8 39.6,12.9 39.5,12.9 L39.5,26.3 L39.6,28.3 C39.5,28.7 39.4,28.9 39.1,29.1 C38.9,29.2 38.6,29.3 38.3,29.3 C37.9,29.3 37.8,29.2 37.8,29.1 C37.7,29 37.7,28.7 37.7,28.7 L37.8,25.5 L37.8,12.5 L35.7,12.5 C35.7,13.9 35.6,15.1 35.6,16.1 C35.6,17.2 35.5,18 35.4,18.9 C35.3,19.8 35,20.7 34.8,22 C34.4,23.2 33.9,24.3 33.3,25.2 C32.7,26.1 32,26.8 31.7,27.2 C31.3,27.6 30.9,28 30.7,28.2 L30.2,28.6 C30.1,28.7 30.1,28.7 30,28.7 C30,28.7 29.9,28.7 29.9,28.6 L29.9,28.5 L29.9,28.4 C29.9,28.4 29.9,28.3 30,28.2 L30.5,27.8 C31.5,26.6 32.3,25.4 32.9,24 C33.4,22.7 33.8,21.3 34,19.9 C34.1,18.5 34.2,17.1 34.4,15.9 C34.4,14.7 34.5,13.2 34.5,11.4 C34.5,10.3 34.5,9.2 34.5,8.1 C34.5,7 34.5,6.3 34.5,6.3 L34.5,5.7 L34.4,3.5 C34.4,3.5 34.4,3.5 34.5,3.5 C34.5,3.5 34.7,3.6 35,3.9 L36.5,5 C37.8,4.2 38.8,3.6 39.5,3 L40,2.6 L40.4,2.2 L40.5,2.2 L40.9,2.7 L42.2,4.1 C42.4,4.3 42.6,4.5 42.6,4.6 C42.6,4.7 42.5,4.8 42.4,4.8 L41.8,4.9 L38.9,5.4 L36.5,5.8 C36.5,7 36.5,7.8 36.5,8.4 L36.5,10.2 L36.5,12 L40.1,12 L40.1,11.5 L39.7,11.5 Z M29.9,19.9 L29.8,19.5 C29.7,19.3 29.7,19.1 29.7,19.1 C29.7,19 29.7,19 29.7,19 C29.7,19 29.7,19 29.8,19 C29.9,19 30.3,19.2 30.8,19.6 C31.3,20 31.7,20.5 31.9,20.9 C32.1,21.3 32.3,21.8 32.3,22.3 C32.3,22.7 32.2,23.1 31.9,23.3 C31.7,23.7 31.4,23.7 31.1,23.7 C30.7,23.7 30.6,23.6 30.5,23.3 C30.4,22.9 30.4,22.7 30.4,22.4 L30.4,21.4 C30.4,20.9 30.3,20.3 29.9,19.9 Z" id="Shape_7_"></path>
                <path d="M48.6,14.2 L48.6,4.7 L48.6,1 L48.7,0.9 L49,1 L51.3,1.8 C51.4,1.8 51.5,1.9 51.5,1.9 C51.5,2 51.6,2 51.6,2.1 C51.6,2.2 51.5,2.3 51.4,2.5 L50.6,3.4 L50.6,11.1 C52.6,9.6 54.1,8.2 55.4,7 C56.5,5.8 57.4,5 57.8,4.4 L58.6,3.3 L58.8,2.9 L58.8,2.9 C58.8,2.9 58.9,3 59,3.1 L61,5.5 C61.1,5.6 61.1,5.7 61.1,5.9 C61.1,6.1 61,6.1 60.7,6.1 L60,6 C56.1,8.5 53.7,10 52.7,10.5 L50.3,11.6 L50.3,14 L60.1,14 L61.5,12 C61.6,11.9 61.6,11.8 61.7,11.8 C61.7,11.8 61.8,11.8 61.8,11.9 L63.6,14.3 C63.7,14.4 63.7,14.7 63.7,14.7 C63.7,14.8 63.6,14.9 63.5,14.9 L61.2,14.9 L54.3,14.9 C54.3,15 54.4,15.3 54.4,15.5 C54.5,15.7 54.6,16.3 54.9,16.9 C55.1,17.7 55.8,18.7 56.8,20.1 C57.8,21.5 58.7,22.5 59.5,23 C60.1,23.6 60.9,24.1 61.6,24.5 C62.2,24.9 62.7,25.1 63,25.3 L63.6,25.5 C63.7,25.5 63.8,25.6 63.8,25.9 C63.8,26 63.7,26.1 63.6,26.1 L63,26.2 C62.8,26.2 62.5,26.4 62,26.6 C61.6,26.8 61.4,27 61.1,27.4 L60.7,27.8 L60.5,28.2 C60.4,28.2 60.4,28.2 60.3,28.1 L59.8,27.7 C58.5,26.6 57.5,25.4 56.6,24.1 C55.7,22.7 55.2,21.5 54.8,20.4 C54.4,19.3 54.3,18.4 54,17.5 C53.9,16.6 53.8,15.9 53.6,15.2 L50.3,15.2 L50.3,24.9 C52.2,24 53.6,23.3 54.2,22.9 L55.2,22.3 C55.3,22.3 55.3,22.3 55.4,22.3 C55.4,22.3 55.5,22.4 55.5,22.5 C55.5,22.6 55.5,22.6 55.4,22.7 L54.5,23.7 C54.5,23.7 54,24.2 53,25.3 C51.9,26.4 51,27.3 50.3,28.1 L49.4,29.2 L49,29.6 C49,29.6 48.9,29.5 48.8,29.2 L47.7,26.7 C47.6,26.6 47.6,26.5 47.6,26.5 C47.6,26.5 47.6,26.5 47.6,26.4 L47.6,26.4 C47.6,26.4 47.7,26.4 47.7,26.3 C47.8,26.2 47.8,26.1 47.9,25.9 C48,25.8 48,25.5 48.1,25.5 C48.1,25.4 48.2,25 48.2,24.2 L48.2,15 L44.7,15 C44.6,15 44.5,14.9 44.5,14.6 C44.5,14.4 44.6,14.2 44.7,14.2 L48.6,14.2 L48.6,14.2 Z" id="Path_3_"></path>
                <path d="M73.5,6.8 L74.3,5.3 C74.4,5.1 74.4,5.1 74.5,4.9 C74.5,4.9 74.6,4.9 74.7,5 L76.1,6.8 C76.2,6.9 76.2,7.2 76.2,7.2 C76.2,7.2 76.1,7.4 76,7.4 L74.2,7.4 L70.5,7.4 C70.4,8 70,9.2 69.6,10.7 C69.1,12.2 69,13.3 68.7,14 L70.8,14 L70.8,11.8 L70.8,9 C70.8,9 71,9 71.3,9.1 L73.2,9.7 C73.3,9.7 73.3,9.8 73.3,9.8 L73.3,9.9 C73.3,9.9 73.3,10 73.2,10 L72.7,10.5 L72.7,13.8 L73.2,13.8 L73.7,12.6 C73.8,12.4 73.9,12.2 74.2,12.5 L75.3,14.1 C75.4,14.3 75.5,14.5 75.4,14.5 C75.3,14.6 75.3,14.6 75.2,14.6 L72.5,14.6 L72.5,19.7 C73,19.6 73.4,19.3 73.6,19.3 L74.6,18.9 L75.1,18.7 C75.2,18.7 75.2,18.7 75.3,18.9 C75.3,19 75.3,19.1 75.2,19.3 L74.8,19.7 C74.7,19.7 74,20.2 72.4,21.2 L72.4,25.9 L72.5,28.5 C72.5,28.6 72.5,28.7 72.4,28.9 C72.4,29 72.2,29.1 72,29.3 C71.8,29.4 71.5,29.4 71.2,29.4 C70.8,29.4 70.7,29.4 70.7,29.3 C70.6,29.2 70.6,29.1 70.6,28.9 L70.7,25.7 L70.7,22.4 C69.8,22.9 69.2,23.4 68.6,23.7 L68,24.1 L67.5,24.5 L67.7,24.5 C67.7,24.5 67.6,24.4 67.6,24.1 L67.1,22.6 L66.7,21.5 L66.7,21.5 C66.7,21.5 66.8,21.5 67.2,21.4 L68,21.3 C68.9,21.1 69.9,20.9 71,20.5 L71,15 L68.6,15 L68,16.3 C67.9,16.5 67.9,16.5 67.9,16.5 C67.9,16.5 67.8,16.4 67.7,16.3 L66.7,14.8 C66.6,14.7 66.6,14.7 66.6,14.6 L66.6,14.5 C66.6,14.5 66.7,14.4 66.8,14.3 C66.9,14.2 67.2,13.9 67.3,13.5 C67.4,13.1 67.8,12.1 68.1,10.4 C68.6,8.8 68.7,7.9 68.7,7.7 L68.8,7.3 L66.7,7.3 C66.5,7.3 66.5,7.2 66.3,6.9 C66.3,6.5 66.4,6.5 66.7,6.5 L69,6.5 C69.4,5 69.5,3.6 69.8,2.4 L69.9,1.3 L70,0.4 L70,0.4 L70.4,0.6 L72.4,1.6 C72.5,1.7 72.6,1.7 72.6,1.8 L72.6,1.9 C72.6,1.9 72.6,2 72.5,2 L71.9,2.5 C71.7,3.4 71.4,4.3 71.4,4.8 C71.3,5.4 71,6 70.9,6.4 L73.6,6.4 L73.5,6.8 L73.5,6.8 Z M83.8,26.6 L77.5,26.6 L77.5,28.4 C77.5,28.8 77.3,29 76.9,29.2 C76.4,29.3 76.1,29.3 76.1,29.2 C76,29.1 76,28.8 75.9,28.8 L76,25.2 L76,11.1 L75.9,8.5 C76,8.4 76,8.4 76.1,8.5 L77.7,9.8 L79.8,9.8 L79.8,4.3 L79.7,1.7 C79.7,1.6 79.8,1.6 79.8,1.6 L80.2,1.7 L82.1,2.3 C82.2,2.3 82.2,2.4 82.2,2.5 C82.2,2.6 82.2,2.7 82.1,2.9 L81.6,3.5 L81.6,9.8 L83.9,9.8 L84.4,8.7 C84.5,8.5 84.6,8.3 84.6,8.3 C84.6,8.3 84.7,8.4 85,8.5 L86.4,9.9 C86.6,10.1 86.6,10.3 86.6,10.4 C86.6,10.5 86.5,10.6 86.5,10.8 L86,11.3 L86,24.9 L86.1,27.8 C86.1,27.9 86,28.2 86,28.3 C85.9,28.5 85.6,28.7 85.1,28.7 C84.6,28.7 84.3,28.7 84.3,28.6 C84.2,28.5 84.2,28.4 84.2,28.2 L84.2,26.4 L84.1,26.4 L84.1,26.6 L83.8,26.6 Z M79.8,17.1 L79.8,10.4 L77.4,10.4 L77.4,17.1 L79.8,17.1 Z M79.8,25.8 L79.8,18 L77.4,18 L77.4,25.8 L79.8,25.8 Z M83.8,17.1 L83.8,10.4 L81.4,10.4 L81.4,17.1 L83.8,17.1 Z M83.8,25.8 L83.8,18 L81.4,18 L81.4,25.8 L83.8,25.8 Z" id="Shape_6_"></path>
                <path d="M93.9,15.8 L94.5,15.8 L95.3,14.5 C95.4,14.4 95.4,14.4 95.4,14.4 C95.4,14.4 95.5,14.4 95.5,14.5 L96.8,16.3 C96.8,16.4 96.9,16.4 96.9,16.5 C96.9,16.6 96.8,16.6 96.8,16.6 L93.9,16.6 L93.9,23.2 L96.7,22.6 C96.8,22.6 96.9,22.6 96.9,22.7 C96.9,22.8 96.9,22.9 96.8,22.9 L96,23.3 C94,24.6 92.1,25.7 90.4,26.6 L89.5,27.1 C89.4,27.2 89.3,27.2 89.3,27.2 C89.3,27.2 89.2,27 89.2,26.8 L88.7,24.4 L88.7,24.3 C88.7,24.2 88.7,24.2 88.7,24.2 C88.7,24.2 88.8,24.2 88.8,24.1 L89.4,24 L89.4,17 L89.4,14.4 C89.4,14.4 89.5,14.4 89.5,14.3 C89.5,14.3 89.6,14.3 89.7,14.4 L91.2,14.9 C91.3,14.9 91.3,15 91.3,15 L91.3,15.1 C91.3,15.2 91.3,15.2 91.2,15.3 L90.8,15.7 L90.8,23.8 L92.2,23.6 L92.2,10.5 L91.2,10.5 L91.2,11.5 C91.2,11.6 91.2,11.7 91.1,11.9 C91.1,12 90.9,12.1 90.6,12.3 C90.4,12.4 90.1,12.4 90.1,12.4 C89.9,12.4 89.7,12.4 89.7,12.3 C89.7,12.2 89.6,12.1 89.6,11.9 L89.7,8.8 L89.7,4 L89.7,1.5 C89.7,1.5 89.8,1.5 90.1,1.6 L91.5,2.7 L94.3,2.7 L94.8,1.7 C94.9,1.6 94.9,1.6 94.9,1.5 C94.9,1.5 95,1.5 95,1.6 L96.5,3 L96.6,3.1 C96.6,3.1 96.6,3.1 96.6,3.2 L96.6,3.3 C96.6,3.3 96.6,3.4 96.5,3.5 L96,4.1 L96,8.8 L96,10.6 C96,10.8 95.9,11 95.9,11 C95.9,11.1 95.7,11.2 95.4,11.4 C95,11.6 94.9,11.5 94.8,11.5 C94.6,11.5 94.3,11.3 94.3,11.1 L94.3,10.5 L93.8,10.5 L93.9,15.8 L93.9,15.8 Z M94.3,9.7 L94.3,3.7 L91.2,3.7 L91.2,9.7 L94.3,9.7 Z M104.3,18.4 L99.3,18.4 L99.3,26.3 L105.5,26.3 L106.3,24.9 C106.4,24.8 106.4,24.7 106.4,24.7 C106.4,24.7 106.5,24.7 106.6,24.8 L108.1,26.8 C108.1,26.8 108.1,26.9 108.2,26.9 L108.2,27 C108.2,27 108.2,27.1 108.1,27.1 L99.4,27.1 L98.6,28.4 C98.5,28.5 98.5,28.5 98.4,28.4 L97,26.9 C96.9,26.8 96.9,26.7 96.9,26.5 C96.9,26.4 96.9,26.3 97,26.1 L97.5,25.5 L97.5,5 L97.4,1.7 C97.4,1.7 97.4,1.6 97.5,1.6 L97.9,2 L99.3,3.2 L104.6,3.2 L105.5,1.6 C105.5,1.5 105.6,1.5 105.6,1.4 C105.6,1.4 105.7,1.4 105.8,1.5 L107.4,3.7 L107.4,3.8 L107.4,3.9 L107.4,3.9 C107.4,4 107.4,4 107.3,4 L99.1,4 L99.1,9.5 L104,9.5 L104.5,8.4 C104.5,8.4 104.5,8.4 104.5,8.3 C104.5,8.2 104.6,8.2 104.7,8.3 L106.5,9.9 C106.6,10 106.6,10 106.6,10 L106.6,10.1 C106.6,10.2 106.6,10.2 106.5,10.3 L106,10.9 L106,17.1 L106.1,19.1 C106.1,19.3 106,19.5 105.9,19.6 C105.8,19.7 105.7,20 105.4,20 C105.2,20.1 104.9,20.2 104.6,20.1 C104.4,20.1 104.2,20.1 104.1,20 C104,19.9 104,19.8 104,19.6 L104,18.2 L104.3,18.4 L104.3,18.4 Z M104.3,17.5 L104.3,10.5 L99.3,10.5 L99.3,17.5 L104.3,17.5 Z" id="Shape_5_"></path>
                <path d="M128.5,10.1 L131.5,10.9 C131.7,10.5 132,10.1 132,9.9 C132.1,9.7 132.2,9.4 132.5,8.8 L133,7.3 L133.1,7.1 C133.1,7.1 133.2,7.1 133.3,7.2 L135.2,9.1 C135.3,9.2 135.3,9.3 135.3,9.5 C135.3,9.7 135.2,9.7 135.1,9.7 L134.6,9.8 C133.2,12.1 132.2,13.5 132.1,13.9 L129.7,17.3 C130.6,17.2 131.5,17.2 132.2,17.1 C132.9,17 133.6,17 134,17 L135.1,16.9 C135.2,16.9 135.3,16.9 135.3,17.1 C135.3,17.2 135.3,17.3 135.1,17.3 L134,17.7 C131.6,18.6 130.2,19.2 129.4,19.5 L128.4,20 C128.2,20.1 128,20.2 128,20.1 C128,20.1 128,20 127.9,19.7 L127.3,17.5 C127.3,17.4 127.2,17.3 127.3,17.3 C127.3,17.2 127.3,17.2 127.4,17.2 L127.8,17.1 C128,17 128.3,16.9 128.6,16.7 C129,16.5 129.6,15.3 130.6,13.3 L131.5,11.5 C130.5,11.6 129.5,11.9 128.7,12 L128.1,12.2 L127.9,12.3 L127.8,12.2 L127.3,10 C127.3,9.9 127.3,9.8 127.3,9.8 C127.3,9.8 127.4,9.7 127.5,9.6 L127.9,9.5 C128.4,9.3 128.8,8.4 129.3,7 C129.8,5.5 130.4,3.9 130.8,2.4 L131.2,1.4 L131.2,0.8 L131.2,0.8 L131.3,0.9 L133.3,2.5 C133.4,2.6 133.5,2.7 133.5,2.9 C133.5,3.1 133.4,3.1 133.4,3.1 L132.8,3.3 C131.1,5.7 129.9,7.9 128.5,10.1 Z M128.2,23.9 C131,22.9 132.8,22.1 133.6,21.9 L134.4,21.5 C134.5,21.5 134.5,21.5 134.6,21.5 C134.7,21.5 134.7,21.6 134.7,21.7 C134.7,21.8 134.7,21.9 134.6,21.9 L134,22.4 C131.3,24.6 129.7,25.8 129.3,26.2 L128.4,27 C128.2,27.1 128.2,27.2 128,27.2 C128,27.2 128,27.1 127.9,27 L127.3,24.6 L127.2,24.2 L127.2,24.1 L127.4,24.1 L128.2,23.9 Z M134.4,4.6 C134.2,4.6 134.2,4.5 134,4.2 C134,3.8 134.1,3.8 134.4,3.8 L141.6,3.8 L142.1,2.7 C142.1,2.6 142.2,2.6 142.2,2.6 C142.2,2.6 142.3,2.6 142.4,2.7 L143.9,4.3 C144,4.4 144,4.4 144,4.5 L144,4.6 C144,4.7 144,4.7 143.9,4.8 L143.3,5.3 C142.8,7.1 142.5,8.2 142.3,9.1 C142.1,10 141.8,10.9 141.5,11.7 L143.1,11.7 L143.6,10.8 C143.7,10.7 143.7,10.6 143.7,10.6 C143.7,10.6 143.8,10.6 143.9,10.8 L145.4,12.4 C145.5,12.5 145.5,12.5 145.5,12.5 C145.5,12.5 145.5,12.5 145.5,12.6 C145.5,12.6 145.5,12.6 145.5,12.7 C145.5,12.7 145.5,12.8 145.4,12.8 L144.9,13.3 C144,17.1 143.3,19.5 142.8,20.4 L141.7,22.8 C142.1,23.2 142.5,23.8 142.8,24.2 C143.3,24.6 143.7,25.1 144.2,25.4 C144.7,25.8 145.2,25.9 145.5,26 L146.1,26.2 C146.2,26.2 146.3,26.3 146.3,26.4 C146.3,26.5 146.3,26.6 146.1,26.6 L145.6,26.8 C145.1,27.2 144.6,27.4 144.2,27.8 L143.7,28.4 C143.6,28.5 143.6,28.6 143.6,28.6 C143.6,28.6 143.5,28.6 143.5,28.5 L143.1,28.1 C142.2,27.2 141.3,25.9 140.3,24.4 C139.8,24.9 139.2,25.6 138.3,26.3 C137.4,27.1 136.2,27.8 134.4,28.3 L133.6,28.5 L133.5,28.5 C133.5,28.5 133.5,28.5 133.5,28.4 L133.5,28.3 C133.5,28.2 133.5,28.2 133.6,28.1 L134.2,27.7 C136,26.6 137.7,24.9 139.4,22.4 C138.9,21.3 138.6,20.1 138.3,19 C137.9,17.7 137.7,16.4 137.5,15 L137.3,12.2 C137.2,14.1 137.1,16 136.9,17.7 C136.8,19.3 136.4,21 135.8,22.7 C135.3,24.3 134.4,25.6 133.5,26.6 C132.6,27.6 132,28.2 131.6,28.4 L131.1,28.8 C131,28.9 130.9,28.9 130.9,28.8 C130.9,28.7 130.9,28.7 130.9,28.6 C130.9,28.5 130.9,28.5 131,28.4 L131.5,27.8 C132,27.3 132.6,26.4 133.3,25.4 C133.9,24.4 134.6,22.8 134.9,20.6 C135.3,18.5 135.5,16.5 135.7,14.5 C135.8,12.7 135.8,10.7 135.8,8.6 C135.8,6.6 135.8,5.4 135.8,5.4 L135.8,4 L133.9,4 L133.9,4.5 L134.4,4.5 L134.4,4.6 Z M141.6,4.6 L138.4,4.6 C138.4,4.7 138.3,4.8 138.3,4.8 C138.3,4.9 138.2,4.9 137.9,5 C137.9,6 137.9,6.8 137.9,7.2 C137.9,7.7 137.9,8.6 137.9,9.8 C137.9,11.1 138.1,12.6 138.4,14.6 C138.8,16.5 139.3,18.2 139.9,19.7 L140.5,21.2 C140.7,20.7 141,20.1 141.1,19.6 C141.3,19 141.6,18.1 141.9,16.9 C142.3,15.7 142.4,14.7 142.5,14 C142.6,13.2 142.7,12.8 142.7,12.6 L140.8,12.6 L140.3,13.5 C140.2,13.7 140.2,13.7 140.1,13.7 C140.1,13.7 140,13.7 140,13.6 L138.7,12 L138.6,11.9 L138.6,11.8 C138.6,11.8 138.6,11.7 138.7,11.7 L139.1,11.5 C139.2,11.4 139.2,11.4 139.3,11.3 C139.3,11.2 139.4,10.9 139.5,10.7 L139.7,9.9 L141.6,4.6 Z" id="Shape_4_"></path>
                <path d="M199.3,5.9 L199.8,3.5 L200.2,1.3 L200.3,0.7 C200.3,0.7 200.4,0.7 200.7,0.8 L202.7,1.8 C202.8,1.9 202.8,1.9 202.9,2 C202.9,2.1 202.9,2.2 202.7,2.4 L202.2,2.8 L201.4,6 L203.7,6 L204.2,4.9 C204.3,4.7 204.4,4.5 204.4,4.5 C204.4,4.5 204.5,4.5 204.6,4.6 L206,6.2 C206.1,6.3 206.1,6.4 206.1,6.6 C206.1,6.8 206,6.8 206,6.8 L201,6.8 L199.4,13.4 L201.3,13.4 L201.3,11.2 L201.2,8.6 L201.3,8.5 L201.7,8.6 L203.3,9.2 C203.4,9.3 203.5,9.3 203.5,9.4 C203.5,9.5 203.4,9.6 203.4,9.8 L202.9,10.3 L202.9,13.2 L203.4,13.2 L204,11.9 C204.1,11.7 204.2,11.7 204.2,11.5 C204.3,11.5 204.3,11.5 204.4,11.6 L205.7,13.4 C205.8,13.5 205.8,13.6 205.8,13.8 C205.8,14 205.8,13.9 205.7,13.9 L202.8,13.9 L202.8,19.5 C203.3,19.4 203.4,19.1 203.7,19.1 L205.6,18.3 L206.2,18.1 C206.3,18.1 206.4,18.1 206.4,18.2 C206.4,18.3 206.4,18.4 206.3,18.6 L205.7,19 C205.6,19.1 204.6,19.8 202.7,20.9 L202.7,25.2 L202.8,28 C202.6,28.4 202.3,28.8 201.9,28.8 C201.4,28.8 201.3,28.8 201.1,28.7 C201,28.6 201,28.5 201,28.3 L201.1,25.6 L201.1,21.9 C200.9,22.1 200.2,22.5 199.2,23.2 L198.4,23.7 L197.9,24.1 L197.8,24.1 L197.8,24.1 L197.8,24 L197.2,21.1 L197.2,21.2 C197.2,21.2 197.2,21.1 197.3,21.1 L197.8,21 L198.6,20.9 C199.2,20.8 200.1,20.5 201.4,20.3 L201.4,14 L199.4,14 L199,14.8 C198.9,15.2 198.8,15.3 198.8,15.4 C198.8,15.4 198.8,15.5 198.7,15.5 C198.7,15.5 198.6,15.4 198.5,15.3 L197.4,14 C197.3,13.9 197.3,13.9 197.3,13.8 C197.3,13.8 197.4,13.7 197.5,13.6 C197.6,13.5 197.7,13.2 197.9,13 C198.1,12.8 198.1,12.4 198.1,12.2 L198.6,10.6 C198.7,10.2 199.1,9 199.5,6.7 L197.4,6.7 L197.3,6.7 C197.2,6.6 197.1,6.3 197.1,6.2 C197.1,6 197.2,5.8 197.3,5.8 L199.3,5.8 L199.3,5.9 L199.3,5.9 Z M208.8,17 C208.8,17.8 208.8,18.4 208.7,18.9 C208.7,19.4 208.6,20.1 208.5,20.8 C208.4,21.5 208.1,22.6 208,23.6 C207.6,24.7 207.2,25.6 206.4,26.4 C205.6,27.3 205,27.8 204.6,28 L203.8,28.5 C203.6,28.6 203.6,28.6 203.4,28.5 C203.4,28.4 203.4,28.3 203.5,28.1 L204.1,27.3 C204.7,26.7 205.4,25.7 205.7,24.6 C206.2,23.5 206.5,22.3 206.6,21.3 C206.7,20.2 206.7,19.4 206.8,18.7 C206.8,18.1 206.8,17.5 206.8,17.3 C206.8,16.9 206.8,16.8 206.8,16.5 L206.8,15.5 L206.8,15 C206.8,15 206.8,15 206.9,14.9 C206.9,14.9 207,14.9 207.3,15 L209.2,15.6 C209.3,15.6 209.3,15.7 209.3,15.7 L209.3,15.8 L209.3,15.9 C209.3,16 209.3,16 209.2,16 L208.8,17 Z M213.4,8.6 L214.3,7.1 C214.4,6.9 214.5,6.7 214.5,6.7 C214.5,6.7 214.6,6.8 214.7,6.9 L216.1,8.7 C216.2,8.9 216.3,9.1 216.3,9.2 C216.3,9.3 216.2,9.4 216.1,9.4 L214.3,9.4 L211,9.4 C211.1,9.8 211.2,10.2 211.4,10.3 C211.4,10.4 211.6,10.8 212,11.5 C212.4,12.3 213,12.9 213.8,13.5 C214.6,14.1 215.3,14.7 216.2,14.9 L216.8,15.1 C216.9,15.1 216.9,15.2 216.9,15.3 C216.9,15.4 216.9,15.5 216.8,15.5 L216.3,15.7 C215.8,15.9 215.7,16.1 215.4,16.6 L215,17.2 C214.9,17.4 214.8,17.6 214.8,17.4 C214.7,17.4 214.3,17 213.8,16.6 C213.3,16.1 212.9,15.6 212.7,15.2 C212.5,14.8 212.2,14.3 211.9,13.7 C211.5,13.2 211.4,12.5 211.3,11.9 C211.1,11.4 210.9,10.7 210.8,10.1 C210.7,9.6 210.7,9.1 210.6,9 L209.6,9 C209.5,9.2 209.4,9.5 209.2,9.8 L208.6,11.3 C208.1,12.4 207.3,13.5 206.5,14.6 C205.6,15.7 205,16.5 204.2,17.2 L203.7,17.7 C203.6,17.8 203.5,17.8 203.5,17.7 C203.5,17.6 203.5,17.3 203.6,17.3 L204.1,16.7 C204.3,16.3 204.6,16.1 204.9,15.6 C205.3,15.2 205.5,14.5 206,13.7 C206.5,12.8 206.8,12.1 206.9,11.7 C207.1,11.3 207.3,10.7 207.4,10.4 C207.5,10 207.6,9.6 207.8,9.4 L204,9.4 C203.9,9.4 203.8,9.3 203.8,9 C203.8,8.6 203.9,8.6 204,8.6 L208.2,8.6 C208.2,8.5 208.3,8.2 208.3,8.1 C208.4,7.9 208.4,7.6 208.5,7.2 C208.6,6.8 208.7,6.1 209,5 C207.4,5.4 206.3,5.4 205.8,5.4 L205.3,5.4 C205.2,5.4 205.1,5.3 205.1,5.2 C205.1,5.1 205.2,5 205.2,5 L206,4.8 C206.5,4.7 206.9,4.6 207.1,4.4 C207.3,4.3 208.1,4 209.2,3.4 C210.3,2.8 211.1,2.5 211.6,2.2 L212.6,1.6 C212.7,1.6 212.8,1.5 212.8,1.4 C212.9,1.3 213,1.2 213,1.2 C213,1.2 213.1,1.3 213.4,1.6 L214.8,3.4 C215,3.6 215.2,3.8 215,3.9 C215,4 214.9,4 214.8,4 L214,4.1 C213.5,4.2 213,4.3 212.4,4.5 C211.8,4.6 211,4.7 210.4,4.9 L211.4,5.5 L211.5,5.6 C211.5,5.7 211.5,5.7 211.4,5.8 L210.9,6.2 C210.7,6.8 210.4,7.4 210.4,7.7 C210.3,8.1 210.2,8.3 210,8.7 L213.4,8.7 L213.4,8.6 L213.4,8.6 Z M213.1,17.4 L213.1,25.9 L213.2,28.4 C213.2,28.5 213.1,28.8 213.1,28.9 C213,29.1 212.7,29.3 212.3,29.3 C211.8,29.3 211.7,29.3 211.5,29.2 C211.4,29.1 211.4,29 211.4,28.8 L211.5,26.6 L211.5,18.5 L211.4,15.8 L211.5,15.7 L211.9,15.8 L213.5,16.4 C213.6,16.4 213.7,16.5 213.6,16.6 C213.6,16.7 213.6,16.8 213.5,17 L213.1,17.4 Z" id="Shape_3_"></path>
                <path d="M228.5,20.4 L228.5,15.6 L223.9,15.6 L223.1,16.7 C223,16.8 223,16.8 222.9,16.7 L221.8,14.9 C221.7,14.7 221.6,14.5 221.6,14.5 C221.6,14.5 221.7,14.4 222.1,14.1 C222.3,14 222.5,13.9 222.6,13.7 C222.7,13.5 223.1,12.8 223.5,11.8 C224,10.7 224.3,9.9 224.5,9.3 C224.7,8.8 225,8 225.3,7.1 L220.3,7.1 C220.1,7.1 220.1,7 219.9,6.7 C219.9,6.3 220,6.3 220.3,6.3 L225.6,6.3 C225.6,6.2 225.8,5.7 226.1,4.7 C226.5,3.7 226.6,2.9 226.7,2.3 L226.9,1.3 L227,0.5 L227,0.5 L227.4,0.9 L229.5,2.3 C229.6,2.4 229.6,2.4 229.6,2.5 C229.6,2.6 229.5,2.7 229.4,2.9 L228.6,3.3 L227.5,6.4 L234.2,6.4 L235,4.9 C235.2,4.5 235.4,4.4 235.4,4.4 C235.4,4.4 235.5,4.5 235.8,4.6 L237.4,6.5 C237.5,6.7 237.6,6.9 237.6,6.9 C237.6,7 237.5,7.1 237.4,7.1 L236.6,7.1 L236.6,7.1 L227,7.1 L223.8,14.9 L228.1,14.9 L228.1,11.6 L228,8.9 C228,8.8 228.1,8.8 228.1,8.8 L228.3,8.9 L230.4,9.8 C230.5,9.9 230.6,10 230.6,10.2 C230.6,10.3 230.5,10.4 230.4,10.6 L229.9,11 L229.9,15 L232.9,15 L233.7,13.5 C233.9,13.1 234.1,13 234.2,13 C234.3,13.1 234.4,13.2 234.7,13.4 L236.1,15.2 C236.2,15.4 236.3,15.6 236.3,15.6 C236.3,15.6 236.2,15.8 236.1,15.8 L230,15.8 L230,20.6 L235.2,20.6 L236.1,19 C236.2,18.8 236.3,18.6 236.3,18.6 C236.3,18.6 236.4,18.6 236.5,18.7 L238,20.6 C238.1,20.7 238.1,20.8 238.2,21 C238.2,21.1 238.2,21.2 238.3,21.4 C238.3,21.5 238.2,21.5 238.1,21.5 L235.6,21.5 L235.6,21.5 L230,21.5 L230,26.2 L230.1,28.8 C230.1,28.9 230.1,29 230,29.2 C230,29.3 229.9,29.4 229.6,29.6 C229.4,29.7 229.1,29.8 228.7,29.8 C228.3,29.8 228.2,29.7 228.1,29.6 C228,29.5 228,29.2 228,29 L228.1,26.4 L228.1,21.6 L219,21.6 L218.9,21.6 C218.8,21.6 218.8,21.5 218.8,21.5 L218.8,21 C218.8,20.6 218.9,20.5 219,20.5 L228.4,20.5 L228.4,20.4 L228.5,20.4 Z" id="Path_2_"></path>
                <path d="M122.6,18.9 L123.5,18.9 C123.4,20.7 123.1,22.3 122.7,23.7 C122.3,25.1 121.4,26 120.6,26.8 C119.8,27.4 118.8,27.8 117.8,27.8 C116.4,27.8 115.3,27.3 114.1,26 C113,24.8 112.2,23.1 111.7,20.7 C111.3,18.9 111.2,17.1 111.2,15.1 C111.2,11.4 111.7,8.2 113,5.9 C113.5,4.7 114.4,3.7 115.4,3.1 C116.2,2.6 117,2.3 118.1,2.3 C119.6,2.3 121,3.1 122.1,4.6 L123,2.4 L123.5,2.4 L123.5,9.7 L123,9.7 C122.4,5.6 120.7,3.5 118.6,3.5 C117,3.5 115.7,4.6 114.9,6.8 C114.1,9 113.8,11.6 113.8,15.1 C113.8,18.3 114.2,20.8 114.8,22.9 C115.6,25.2 116.8,26.3 118.6,26.3 C119.7,26.3 120.6,25.8 121.4,24.8 C122,23.2 122.5,21.4 122.6,18.9 Z" id="Path_1_"></path>
                <g id="Group_1_" transform="translate(148.000000, 0.000000)">
                    <path d="M4.7,13.2 L1.2,13.2 C1,13.2 0.9,13 0.9,12.8 C0.9,12.5 1,12.4 1.2,12.4 L4.5,12.4 L5,11.7 L5.2,11.4 C5.3,11.3 5.3,11.3 5.4,11.4 C5.5,11.4 5.6,11.6 5.9,11.8 L6.8,12.7 C7,12.8 7.2,13 7.2,13 C7.2,13 7.2,13.1 7.2,13.2 C7.2,13.3 7.1,13.4 6.9,13.6 L6.4,14.2 L6.4,23.8 C7.1,24.3 7.8,24.8 8.5,25.1 C9.1,25.4 9.9,25.6 10.8,25.7 C11.7,25.8 12.9,25.9 14.4,25.9 C17.3,25.9 19.5,25.6 21,25.2 L21.8,25 C21.9,24.9 22,25 22,25.1 C22,25.2 21.9,25.4 21.8,25.5 L21.4,26 C21.2,26.2 21.1,26.4 21,26.6 C20.9,26.9 20.8,27 20.8,27.1 C20.8,27.3 20.7,27.5 20.7,27.8 C20.7,28.1 20.6,28.3 20.4,28.4 C20.3,28.5 19.5,28.6 18,28.6 C17.9,28.6 17.5,28.6 17.1,28.6 C16.6,28.6 16,28.6 15.2,28.6 C14.5,28.6 13.5,28.6 12.2,28.5 C11,28.4 9.9,28.2 9.1,27.8 C8.3,27.4 7.6,26.9 7.1,26.5 L5.8,25.3 C5.3,24.9 5,24.8 4.7,24.8 C4.3,24.8 3.9,25.1 3.4,25.5 C2.9,25.9 2.6,26.4 2.4,26.8 L1.9,27.8 C2,28 2,28 1.9,28 C1.9,28 1.8,27.8 1.7,27.6 L1.1,25.4 L1,25 C1,25 1.1,24.9 1.3,24.8 L2,24.4 C2.8,24 3.6,23.7 4.5,23.6 L4.5,13.2 L4.7,13.2 Z M3,1.9 C2.9,1.7 2.8,1.6 2.8,1.5 C2.8,1.4 2.9,1.3 3.1,1.3 C4.2,1.6 5,2 5.8,2.7 C6.5,3.4 6.9,4.2 6.8,5.3 C6.8,5.7 6.6,6.1 6.4,6.4 C6.1,6.8 5.9,6.9 5.4,6.9 C5.1,6.9 4.9,6.8 4.7,6.5 C4.5,6.3 4.4,6.1 4.3,5.8 C4.2,5.5 4.2,5.1 4.1,4.5 C4.1,4 4,3.5 3.9,3.1 C3.8,2.8 3.5,2.3 3,1.9 Z M13.4,11.4 L14.8,12.3 C15.1,12.5 15.2,12.6 15.2,12.7 C15.2,12.8 15.3,12.9 15.3,13 C15.3,13.1 15.2,13.2 14.9,13.4 L14.4,13.7 C13.9,14.5 13.4,15.4 12.9,16.3 C12.4,17.2 11.4,18.6 10,20.3 C12.7,20.2 15.4,20.1 18.1,19.9 C17.6,18.4 17,17.3 16.5,16.5 L16,15.7 C15.9,15.6 15.9,15.5 15.9,15.4 C15.9,15.3 16,15.2 16.1,15.2 C16.2,15.2 16.6,15.5 17.5,16.1 C18.3,16.7 19,17.3 19.7,18 C20.3,18.7 20.8,19.3 21,20 C20.9,20.5 21,21 21,21.4 C21,21.8 20.9,22.3 20.7,22.8 C20.5,23.3 20.2,23.6 19.6,23.6 C19.3,23.6 19.1,23.5 18.9,23.2 C18.7,22.9 18.5,22.6 18.5,22.1 L18.4,21 L18.2,20.2 L16.3,20.7 C14.2,21.3 12.8,21.8 12,22 L9.3,23.1 C9.2,23.1 9.1,23 9,22.7 L8.1,20.4 C8.1,20.3 8,20.1 8,20 L8.1,19.9 L8.6,19.6 C8.9,19.4 9.1,19.2 9.4,19 C9.7,18.7 10.1,18 10.7,16.9 C11.2,15.8 11.7,14.8 12,13.9 C12.4,13.1 12.6,12.2 12.9,11.4 L7.3,11.4 C7.1,11.4 7,11.2 7,11 C7,10.7 7.1,10.6 7.3,10.6 L18.9,10.6 L19.5,9.5 C19.8,9 20,8.8 20,8.8 C20,8.8 20.3,9 20.6,9.2 L21.7,10.3 C22.1,10.7 22.3,11 22.3,11 C22.3,11.1 22.4,11.1 22.4,11.2 C22.4,11.3 22.4,11.3 22.3,11.4 C22.3,11.5 22.2,11.5 22.1,11.5 L20.2,11.5 L13.4,11.5 L13.4,11.4 Z M16.7,3.8 L17.5,2.5 C17.7,2.2 17.9,2 17.9,2 C17.9,2 18.2,2.2 18.5,2.5 L19.9,3.8 C20.2,4.2 20.4,4.3 20.4,4.5 C20.4,4.7 20.2,4.8 20,4.8 L17.8,4.8 L8,4.8 C7.8,4.8 7.7,4.6 7.7,4.4 C7.7,4.2 7.8,3.9 8,3.9 L16.7,3.8 L16.7,3.8 Z" id="Shape_2_"></path>
                    <path d="M28.8,12.8 L24.4,12.8 C24.2,12.8 24.1,12.6 24.1,12.4 C24.1,12.2 24.2,12 24.4,12 L32.9,12 L33.9,10.3 C34.1,10 34.2,9.9 34.2,9.9 C34.3,9.9 34.4,10 34.6,10.3 L36,12 C36.1,12.2 36.2,12.3 36.3,12.4 C36.4,12.5 36.4,12.6 36.4,12.7 C36.4,12.8 36.4,12.8 36.3,12.9 C36.2,13 36.1,13 36,13 L30,13 L31.4,13.7 C31.7,13.9 31.8,14 31.8,14.1 C31.8,14.3 31.7,14.4 31.5,14.5 L31,14.7 C30.4,16.1 29.8,17.3 29.4,18.3 C28.9,19.3 28.2,20.5 27.4,22 C29.2,21.8 31.1,21.6 33.1,21.4 C33,21 33,20.8 32.9,20.5 C32.8,20.3 32.7,19.9 32.4,19.4 C32.2,18.9 31.9,18.5 31.8,18.2 L31.3,17.2 C31.3,17.2 31.2,17.1 31.2,17 C31.2,16.9 31.2,16.8 31.2,16.8 C31.2,16.7 31.3,16.7 31.4,16.7 C31.6,16.7 31.9,16.9 32.5,17.2 C33,17.6 33.6,18 34,18.5 C34.5,19 34.8,19.5 35.1,19.9 C35.4,20.3 35.6,20.8 35.6,21.2 C35.7,21.6 35.7,22.1 35.7,22.4 C35.7,22.8 35.6,23.2 35.4,23.5 C35.1,24.1 34.8,24.4 34.3,24.4 C33.9,24.4 33.7,24.2 33.5,24 C33.3,23.6 33.2,23.3 33.1,22.9 L33,21.9 C30.6,23 28.7,23.8 27.5,24.5 L26.6,25 L26.1,25.3 C26,25.3 26,25.3 26,25.3 C26,25.3 25.9,25.1 25.8,24.8 L25.1,23 C25,22.7 25,22.6 24.9,22.5 C24.9,22.4 24.8,22.4 24.8,22.4 C24.8,22.4 24.9,22.3 25.1,22.2 L25.6,22 C25.8,21.9 26.1,21.6 26.5,20.9 C27,20.3 27.4,19.1 27.9,17.3 C28.3,15.4 28.6,14 28.8,12.8 Z M32.3,5.3 L33.1,3.8 C33.2,3.6 33.3,3.5 33.4,3.5 C33.5,3.5 33.6,3.6 33.8,3.8 L35.2,5.3 C35.3,5.4 35.4,5.6 35.4,5.7 C35.5,5.8 35.5,5.9 35.5,6 C35.5,6.1 35.5,6.1 35.4,6.2 C35.3,6.3 35.2,6.3 35.1,6.3 L33.5,6.3 L33.5,6.3 L25.6,6.3 C25.4,6.2 25.3,6 25.2,5.8 C25.1,5.6 25.3,5.4 25.6,5.4 L32.3,5.4 L32.3,5.3 Z M34.2,8.8 L34.4,8.8 L37.7,8.6 C37.7,7.7 37.7,6.8 37.7,6 C37.7,5.2 37.7,4.5 37.7,3.9 L37.6,2.1 L37.5,0.7 C37.6,0.7 37.6,0.6 37.6,0.6 C37.6,0.6 37.8,0.6 38.1,0.7 L40.2,1.2 C40.3,1.2 40.4,1.3 40.5,1.3 C40.6,1.3 40.6,1.4 40.7,1.5 L40.7,1.6 L40.7,1.7 L40.4,2.1 L39.8,2.9 C39.8,4.4 39.8,5.4 39.8,5.6 L39.8,8.3 L42.4,8.1 L42.9,7 C43,6.8 43.1,6.6 43.2,6.6 C43.3,6.6 43.4,6.7 43.6,6.8 L45.3,8.5 C45.3,8.5 45.4,8.6 45.5,8.7 C45.6,8.8 45.6,8.9 45.6,8.9 L45.6,9 C45.6,9.1 45.6,9.1 45.6,9.2 C45.6,9.3 45.5,9.3 45.4,9.5 L44.7,10.2 C44.7,11.7 44.7,12.9 44.6,13.8 C44.5,14.7 44.5,16.3 44.5,18.5 C44.4,20.6 44.3,22.3 44.2,23.5 C44.1,24.6 43.9,25.6 43.7,26.4 C43.4,27.2 43.2,27.7 42.8,28.1 C42.4,28.5 42.2,28.7 41.7,29 C41.3,29.3 41.1,29.4 41.1,29.4 C41,29.4 41,29.4 41,29.3 C41,29.2 40.9,29.2 40.9,29.1 L40.7,28.2 C40.5,27.5 40.1,27.1 39.5,26.7 L38.6,26.3 C38.5,26.3 38.5,26.2 38.4,26.1 C38.4,26 38.3,25.9 38.3,25.9 C38.3,25.7 38.4,25.7 38.6,25.7 L39.7,25.8 C40.4,25.9 41,25.8 41.2,25.5 C41.5,25.2 41.7,24.8 41.9,24.1 C42.1,23.4 42.3,22.2 42.3,20.3 L42.5,15.8 C42.5,15.1 42.5,14 42.6,12.5 C42.7,11 42.6,10.3 42.6,10.2 L42.6,9.1 L39.7,9.3 C39.7,9.5 39.7,9.6 39.7,9.7 L39.6,11.4 C39.5,15.2 39.2,18 38.8,19.8 C38.3,21.6 37.8,23 37.3,23.9 C36.7,24.9 36,25.8 35.2,26.6 C34.4,27.4 33.7,28.2 32.8,28.7 L32.1,29.2 C32,29.3 31.9,29.3 31.8,29.3 C31.7,29.3 31.7,29.3 31.7,29.2 C31.7,29.2 31.7,29.1 31.7,29 C31.7,28.9 31.7,28.8 31.8,28.7 L32.5,27.8 C34.3,25.8 35.4,24.1 35.9,22.7 C36.4,21.4 36.7,20 37,18.7 C37.3,17.4 37.4,16.1 37.5,14.8 C37.6,13.6 37.7,12.3 37.7,11.1 L37.7,10.1 L37.7,9.1 L34.3,9.3 C34.1,9.3 34,9.2 34,8.9 C34,9 34.1,8.9 34.2,8.8 Z" id="Shape_1_"></path>
                </g>
            </g>
        </g>
    </g>
</svg>